<svg width="16" height="16" viewBox="0 0 16 16" xmlns="http://www.w3.org/2000/svg"><path d="M1 8.035l-.532-.529A.75.75 0 0 0 1 8.786v-.75zM8 1l.532-.529a.75.75 0 0 0-1.064 0L8 1zM3.05 8.035h.75a.75.75 0 0 0-.75-.75v.75zm0 6.965H2.3c0 .414.336.75.75.75V15zm9.9 0v.75a.75.75 0 0 0 .75-.75h-.75zm0-6.965v-.75a.75.75 0 0 0-.75.75h.75zm2.05 0v.75a.75.75 0 0 0 .532-1.279l-.532.53zm-9.95.01v-.75a.75.75 0 0 0-.75.75h.75zm0 4.955H4.3c0 .414.336.75.75.75V13zm5.9-4.955h.75a.75.75 0 0 0-.75-.75v.75zm0 4.955v.75a.75.75 0 0 0 .75-.75h-.75zM1.532 8.564l7-7.035L7.468.471l-7 7.035 1.064 1.058zM3.05 7.285H1v1.5h2.05v-1.5zm-.75.75v.01h1.5v-.01H2.3zm0 .01V13h1.5V8.045H2.3zM2.3 13v2h1.5v-2H2.3zm.75 2.75h2v-1.5h-2v1.5zm2 0h5.9v-1.5h-5.9v1.5zm5.9 0h2v-1.5h-2v1.5zM13.7 15v-2h-1.5v2h1.5zm0-2V8.045h-1.5V13h1.5zm0-4.955v-.01h-1.5v.01h1.5zm1.3-.76h-2.05v1.5H15v-1.5zM7.468 1.53l7 7.035 1.064-1.058-7-7.035-1.064 1.058zM4.3 8.045V13h1.5V8.045H4.3zm6.65-.75h-5.9v1.5h5.9v-1.5zM11.7 13V8.045h-1.5V13h1.5zm-6.65.75h5.9v-1.5h-5.9v1.5z"/></svg>