<svg width="5" height="24" viewBox="0 0 5 24" fill="none" xmlns="http://www.w3.org/2000/svg">
        <mask id="icon-alert-1-inside-1" fill="white"/>
        <path fill-rule="evenodd" clip-rule="evenodd" d="M2.5 20C1.67157 20 1 20.6716 1 21.5C1 22.3284 1.67157 23 2.5 23C3.32843 23 4 22.3284 4 21.5C4 20.6716 3.32843 20 2.5 20ZM0 21.5C0 22.8807 1.11929 24 2.5 24C3.88071 24 5 22.8807 5 21.5C5 20.1193 3.88071 19 2.5 19C1.11929 19 0 20.1193 0 21.5ZM4 14.5V2.5C4 1.67157 3.32843 1 2.5 1C1.67157 1 1 1.67157 1 2.5V14.5C1 15.3284 1.67157 16 2.5 16C3.32843 16 4 15.3284 4 14.5ZM0 14.5C0 15.8807 1.11929 17 2.5 17C3.88071 17 5 15.8807 5 14.5V2.5C5 1.11929 3.88071 0 2.5 0C1.11929 0 0 1.11929 0 2.5V14.5Z"/>
    <path d="M0 21.5A2.5 2.5 0 0 1 2.5 19v2a.5.5 0 0 0-.5.5H0zM2.5 24A2.5 2.5 0 0 1 0 21.5h2a.5.5 0 0 0 .5.5v2zM5 21.5A2.5 2.5 0 0 1 2.5 24v-2a.5.5 0 0 0 .5-.5h2zM2.5 19A2.5 2.5 0 0 1 5 21.5H3a.5.5 0 0 0-.5-.5v-2zm0 6A3.5 3.5 0 0 1-1 21.5h2A1.5 1.5 0 0 0 2.5 23v2zM6 21.5A3.5 3.5 0 0 1 2.5 25v-2A1.5 1.5 0 0 0 4 21.5h2zM2.5 18A3.5 3.5 0 0 1 6 21.5H4A1.5 1.5 0 0 0 2.5 20v-2zM-1 21.5A3.5 3.5 0 0 1 2.5 18v2A1.5 1.5 0 0 0 1 21.5h-2zm6-19v12H3v-12h2zM2.5 0A2.5 2.5 0 0 1 5 2.5H3a.5.5 0 0 0-.5-.5V0zM0 2.5A2.5 2.5 0 0 1 2.5 0v2a.5.5 0 0 0-.5.5H0zm0 12v-12h2v12H0zM2.5 17A2.5 2.5 0 0 1 0 14.5h2a.5.5 0 0 0 .5.5v2zM5 14.5A2.5 2.5 0 0 1 2.5 17v-2a.5.5 0 0 0 .5-.5h2zM2.5 18A3.5 3.5 0 0 1-1 14.5h2A1.5 1.5 0 0 0 2.5 16v2zM6 14.5A3.5 3.5 0 0 1 2.5 18v-2A1.5 1.5 0 0 0 4 14.5h2zm0-12v12H4v-12h2zM2.5-1A3.5 3.5 0 0 1 6 2.5H4A1.5 1.5 0 0 0 2.5 1v-2zM-1 2.5A3.5 3.5 0 0 1 2.5-1v2A1.5 1.5 0 0 0 1 2.5h-2zm0 12v-12h2v12h-2z" fill="#FF5D00" mask="url(#icon-alert-1-inside-1)"/>
</svg>
