<svg width="19" height="20" viewBox="0 0 19 20" xmlns="http://www.w3.org/2000/svg"><path fill-rule="evenodd" clip-rule="evenodd" d="M17.476 18.19c.92-.92 1.381-2.031 1.381-3.333a4.592 4.592 0 0 0-.982-2.873c.131-.63.196-1.244.196-1.841 0-1.17-.227-2.29-.68-3.358a8.642 8.642 0 0 0-1.842-2.762 8.64 8.64 0 0 0-2.763-1.842 8.493 8.493 0 0 0-3.357-.68c-.598 0-1.212.065-1.842.196A4.592 4.592 0 0 0 4.714.713c-1.301 0-2.412.46-3.333 1.381C.461 3.016 0 4.127 0 5.43 0 6.493.327 7.45.982 8.3a9.04 9.04 0 0 0-.196 1.842c0 1.17.227 2.29.681 3.358a8.64 8.64 0 0 0 1.842 2.762 8.641 8.641 0 0 0 2.762 1.841 8.492 8.492 0 0 0 3.358.682c.597 0 1.21-.066 1.841-.197a4.593 4.593 0 0 0 2.873.983c1.301 0 2.412-.46 3.333-1.382zm-3.315-7.12c.16.34.24.714.24 1.123 0 .598-.135 1.136-.405 1.614a3.18 3.18 0 0 1-1.087 1.148 5.587 5.587 0 0 1-1.504.657 6.428 6.428 0 0 1-1.719.227c-1.383 0-2.574-.268-3.572-.804-.999-.536-1.498-1.18-1.498-1.933 0-.369.104-.676.313-.921.209-.246.518-.368.927-.368.237 0 .458.065.663.196.205.131.393.288.565.473.172.184.358.368.558.552.2.184.467.342.798.473.332.13.706.196 1.124.196.532 0 .961-.104 1.289-.313.327-.209.49-.473.49-.792 0-.327-.13-.573-.392-.736-.18-.115-.639-.262-1.375-.442l-2.079-.513a7.001 7.001 0 0 1-.978-.328 4.172 4.172 0 0 1-.982-.596 2.326 2.326 0 0 1-.688-.927c-.155-.372-.233-.808-.233-1.307 0-.598.137-1.123.411-1.578.275-.454.639-.81 1.093-1.068a5.65 5.65 0 0 1 1.467-.577 6.86 6.86 0 0 1 1.62-.19c.786 0 1.531.094 2.235.282.704.189 1.285.465 1.743.83.459.363.688.77.688 1.22 0 .369-.117.684-.35.946-.233.262-.542.393-.927.393-.213 0-.41-.05-.59-.148a2.35 2.35 0 0 1-.49-.356 9.262 9.262 0 0 0-.467-.41 2.178 2.178 0 0 0-.663-.35 2.83 2.83 0 0 0-.945-.148c-1.179 0-1.768.315-1.768.945 0 .14.03.262.092.369.061.106.129.192.203.257.073.066.196.131.368.197.086.033.165.06.236.084l.194.057.169.041 1.94.45c.285.07.546.141.782.215a6.83 6.83 0 0 1 1.013.417c.36.18.659.38.896.602a2.7 2.7 0 0 1 .595.84z"/></svg>