<svg xmlns="http://www.w3.org/2000/svg" width="13" height="14" viewBox="0 0 13 14"><path d="M1 13h2.25v-2.25H1V13zm2.75 0h2.5v-2.25h-2.5V13zM1 10.25h2.25v-2.5H1v2.5zm2.75 0h2.5v-2.5h-2.5v2.5zM1 7.25h2.25V5H1v2.25zM6.75 13h2.5v-2.25h-2.5V13zm-3-5.75h2.5V5h-2.5v2.25zm6 5.75H12v-2.25H9.75V13zm-3-2.75h2.5v-2.5h-2.5v2.5zM4 3.5V1.25a.24.24 0 0 0-.074-.176A.24.24 0 0 0 3.75 1h-.5a.24.24 0 0 0-.176.074A.24.24 0 0 0 3 1.25V3.5a.24.24 0 0 0 .074.176.24.24 0 0 0 .176.074h.5a.24.24 0 0 0 .176-.074A.24.24 0 0 0 4 3.5zm5.75 6.75H12v-2.5H9.75v2.5zm-3-3h2.5V5h-2.5v2.25zm3 0H12V5H9.75v2.25zM10 3.5V1.25a.24.24 0 0 0-.074-.176A.24.24 0 0 0 9.75 1h-.5a.24.24 0 0 0-.176.074A.24.24 0 0 0 9 1.25V3.5a.24.24 0 0 0 .074.176.24.24 0 0 0 .176.074h.5a.24.24 0 0 0 .176-.074A.24.24 0 0 0 10 3.5zm3-.5v10c0 .27-.099.505-.297.703A.961.961 0 0 1 12 14H1a.961.961 0 0 1-.703-.297A.961.961 0 0 1 0 13V3c0-.27.099-.505.297-.703A.961.961 0 0 1 1 2h1v-.75c0-.344.122-.638.367-.883S2.907 0 3.25 0h.5c.344 0 .638.122.883.367S5 .907 5 1.25V2h3v-.75c0-.344.122-.638.367-.883S8.907 0 9.25 0h.5c.344 0 .638.122.883.367s.367.54.367.883V2h1c.27 0 .505.099.703.297A.961.961 0 0 1 13 3z"/></svg>