<svg width="16" height="16" viewBox="0 0 16 16" xmlns="http://www.w3.org/2000/svg"><path d="M8 1l.338-.368a.5.5 0 0 0-.676 0L8 1zm7 6.426v.5a.5.5 0 0 0 .338-.868L15 7.426zm-14 0l-.338-.368A.5.5 0 0 0 1 7.926v-.5zm2.92 0h.5a.5.5 0 0 0-.5-.5v.5zm0 7.574h-.5a.5.5 0 0 0 .5.5V15zm8.16 0v.5a.5.5 0 0 0 .5-.5h-.5zm0-7.574v-.5a.5.5 0 0 0-.5.5h.5zM7.661 1.368l7 6.427.676-.737-7-6.426-.676.736zM1.338 7.795l7-6.427-.676-.736-7 6.426.676.737zm2.583-.869H1v1h2.92v-1zM4.42 15V7.426h-1V15h1zm7.658-.5H3.921v1h8.158v-1zm-.5-7.074V15h1V7.426h-1zm3.421-.5h-2.92v1H15v-1z"/></svg>