<svg width="15" height="15" viewBox="0 0 15 15" xmlns="http://www.w3.org/2000/svg"><path d="M14.929 11.861c0 .191-.036.44-.107.748a4.21 4.21 0 0 1-.222.726c-.149.354-.58.728-1.294 1.124-.664.36-1.321.54-1.972.54-.19 0-.378-.011-.562-.036a4.365 4.365 0 0 1-.61-.133l-.339-.1-.493-.176-.774-.286a9.608 9.608 0 0 1-1.855-.88c-.898-.558-1.83-1.322-2.8-2.29-.968-.968-1.731-1.901-2.29-2.799A9.212 9.212 0 0 1 .887 6.85L.323 5.336l-.052-.16C.24 5.085.208 4.972.17 4.838a4.356 4.356 0 0 1-.133-.61A4.208 4.208 0 0 1 0 3.667c0-.65.18-1.308.54-1.972C.938.98 1.312.548 1.666.4c.176-.078.418-.152.726-.223a3.5 3.5 0 0 1 .747-.106c.1 0 .174.01.223.032.127.043.315.311.562.806l.17.303.403.734.116.209c.113.201.223.39.329.567l.185.265c.103.148.179.274.228.376.05.103.075.204.075.303 0 .141-.101.318-.303.53-.201.212-.42.406-.657.583a6.384 6.384 0 0 0-.657.562c-.202.198-.303.36-.303.488 0 .063.018.143.054.238l.063.16c.01.022.018.041.027.057l.055.101.215.355c.537.969 1.152 1.8 1.845 2.492a10.869 10.869 0 0 0 2.135 1.64l.44.254.329.198c.016.01.031.017.043.023l.13.057.088.033a.717.717 0 0 0 .238.053c.128 0 .29-.1.488-.302.198-.201.385-.42.562-.657a5.17 5.17 0 0 1 .583-.658c.212-.201.389-.302.53-.302.1 0 .2.025.302.075.077.037.167.089.27.156l.372.257.37.217.63.352.726.399.087.05c.495.247.763.435.806.562.021.05.032.123.032.223z"/></svg>