<svg width="120" height="70" viewBox="0 0 120 70" fill="none" xmlns="http://www.w3.org/2000/svg">
<path fill-rule="evenodd" clip-rule="evenodd" d="M108.895 32.1851C108.895 31.081 109.745 30.1875 110.784 30.1875C111.829 30.1875 112.671 31.081 112.671 32.1851C112.671 33.2909 111.829 34.1844 110.784 34.1844C109.745 34.1844 108.895 33.2909 108.895 32.1851ZM110.785 33.711C111.579 33.711 112.227 33.0256 112.227 32.1851C112.227 31.3489 111.579 30.6695 110.785 30.6695C109.994 30.6695 109.342 31.3489 109.342 32.1851C109.342 33.0256 109.994 33.711 110.785 33.711ZM110.527 33.0607H110.14V31.3008H110.842C110.985 31.3008 111.145 31.3095 111.268 31.3978C111.402 31.4971 111.479 31.6637 111.479 31.8401C111.479 32.0352 111.369 32.2176 111.194 32.2838L111.496 33.0607H111.066L110.81 32.371H110.527V33.0607H110.527ZM110.527 32.0717H110.743C110.822 32.0717 110.914 32.0743 110.98 32.0352C111.046 31.9923 111.075 31.9068 111.075 31.8315C111.075 31.7653 111.037 31.6856 110.98 31.6545C110.923 31.6151 110.806 31.624 110.738 31.624H110.527V32.0717Z" fill="#EC2127"/>
<path fill-rule="evenodd" clip-rule="evenodd" d="M81.8752 18.8995L81.3575 22.2871C80.2346 21.6857 79.4089 21.4501 78.5268 21.4501C76.1732 21.4501 74.5086 23.8571 74.5086 27.2937C74.5086 29.6673 75.626 31.0974 77.4637 31.0974C78.2436 31.0974 79.1008 30.8454 80.1497 30.2926L79.5974 33.8575C78.4373 34.1933 77.6805 34.3127 76.8033 34.3127C73.394 34.3127 71.2734 31.7256 71.2734 27.5728C71.2734 21.9867 74.2034 18.086 78.3947 18.086C78.9361 18.086 79.4197 18.1392 79.8127 18.2537L81.1158 18.5973C81.5037 18.7518 81.5909 18.7754 81.8752 18.8995Z" fill="#EC2127"/>
<path fill-rule="evenodd" clip-rule="evenodd" d="M71.3834 21.2203C71.2841 21.2014 71.1743 21.1875 71.0599 21.1875C70.0182 21.1875 69.4293 21.742 68.462 23.255L68.7428 21.3251H65.879L63.9375 34.0243H67.1146C68.2506 26.2626 68.5412 24.9222 70.0642 24.9222C70.1569 24.9222 70.1655 24.9222 70.2953 24.9352C70.5762 23.4049 70.9609 22.2798 71.4915 21.2537L71.3834 21.2203Z" fill="#EC2127"/>
<path fill-rule="evenodd" clip-rule="evenodd" d="M52.4547 33.8698C51.5952 34.1575 50.916 34.2885 50.1863 34.2885C48.5726 34.2885 47.6914 33.2995 47.6914 31.495C47.6914 31.1411 47.7177 30.7592 47.7815 30.3564L47.9771 29.1182L48.1221 28.1067L49.4939 19.4415H52.6369L52.2765 21.3256H53.8942L53.4501 24.4126H51.8363L51.0012 29.7127C50.9726 29.9466 50.9483 30.1193 50.9483 30.2387C50.9483 30.889 51.278 31.1796 52.0254 31.1796C52.3901 31.1796 52.6649 31.1413 52.8763 31.0611L52.4547 33.8698Z" fill="#EC2127"/>
<path fill-rule="evenodd" clip-rule="evenodd" d="M39.9912 25.3418C39.9912 26.9446 40.7251 28.053 42.3871 28.8814C43.6599 29.5182 43.8621 29.7038 43.8621 30.2819C43.8621 31.0709 43.2972 31.4363 42.0531 31.4363C41.1147 31.4363 40.2374 31.2786 39.2264 30.9279L38.7891 33.8572L38.9321 33.8877L39.5124 34.0114C39.6992 34.0514 39.974 34.0871 40.3367 34.1265C41.0906 34.1973 41.6687 34.2312 42.0777 34.2312C45.3943 34.2312 46.9288 32.884 46.9288 29.9915C46.9288 28.2535 46.2893 27.2257 44.7087 26.4563C43.3899 25.8241 43.2403 25.675 43.2403 25.0854C43.2403 24.3965 43.7635 24.0426 44.7791 24.0426C45.3986 24.0426 46.2386 24.1166 47.0406 24.2317L47.4911 21.2992C46.6668 21.1579 45.4426 21.0489 44.7173 21.0489C41.1982 21.0489 39.978 22.9978 39.9912 25.3418Z" fill="#EC2127"/>
<path fill-rule="evenodd" clip-rule="evenodd" d="M107.061 34.025H104.069L104.226 32.7807C103.354 33.7637 102.46 34.1927 101.304 34.1927C98.9919 34.1927 97.4766 32.0965 97.4766 28.9212C97.4766 24.6973 99.8313 21.1309 102.628 21.1309C103.856 21.1309 104.785 21.6661 105.66 22.8695L106.348 18.4082H109.465L107.061 34.025ZM102.395 31.035C103.872 31.035 104.904 29.2702 104.904 26.7567C104.904 25.1427 104.315 24.2637 103.222 24.2637C101.79 24.2637 100.772 26.0356 100.772 28.5347C100.772 30.1976 101.32 31.035 102.395 31.035Z" fill="#EC2127"/>
<path fill-rule="evenodd" clip-rule="evenodd" d="M62.4681 33.7592C61.3864 34.101 60.3407 34.2737 59.2195 34.2691C55.6938 34.2691 53.8516 32.317 53.8516 28.5846C53.8516 24.2203 56.1946 21.0079 59.38 21.0079C61.9778 21.0079 63.6465 22.8083 63.6465 25.63C63.6465 26.5643 63.5341 27.4753 63.2526 28.7624H56.966C56.9397 28.9558 56.9357 29.0441 56.9357 29.1564C56.9357 30.6406 57.8761 31.3881 59.716 31.3881C60.8438 31.3881 61.8592 31.1421 62.9958 30.5804L62.4681 33.7592ZM60.6942 26.1971C60.7122 25.9318 60.7165 25.7155 60.7165 25.5546C60.7165 24.5167 60.1599 23.9107 59.2195 23.9107C58.2167 23.9107 57.4983 24.7201 57.2037 26.1885L60.6942 26.1971Z" fill="#EC2127"/>
<path fill-rule="evenodd" clip-rule="evenodd" d="M27.2961 34.025H24.1373L25.9464 22.0245L21.9041 34.025H19.7393L19.4776 22.095L17.5718 34.025H14.6133L17.0816 18.408H21.6338L21.7591 28.0718L24.8318 18.408H29.7447L27.2961 34.025Z" fill="#EC2127"/>
<path fill-rule="evenodd" clip-rule="evenodd" d="M35.4356 28.368C35.1012 28.328 34.9542 28.3134 34.7277 28.3134C32.9364 28.3134 32.0285 28.9691 32.0285 30.2519C32.0285 31.0427 32.4747 31.5465 33.1649 31.5465C34.4508 31.5465 35.3829 30.2519 35.4356 28.368ZM37.7348 34.0249H35.1167L35.1739 32.7064C34.3759 33.7579 33.3099 34.2456 31.8612 34.2456C30.1423 34.2456 28.9688 32.8304 28.9688 30.7857C28.9688 27.6855 31.0195 25.8856 34.5255 25.8856C34.8836 25.8856 35.3409 25.9135 35.8114 25.9797C35.9101 25.5596 35.9367 25.3783 35.9367 25.1556C35.9367 24.3168 35.3872 23.9986 33.9054 23.9986C33.011 23.9986 31.9842 24.1355 31.2766 24.3614L30.837 24.4895L30.5601 24.5718L30.9952 21.7236C32.5737 21.2301 33.6131 21.0399 34.7846 21.0399C37.5015 21.0399 38.9413 22.3296 38.9413 24.7634C38.9413 25.3956 38.8952 25.8646 38.6798 27.2826L38.0183 31.7822L37.9105 32.5948L37.8292 33.2419L37.7743 33.6842L37.7348 34.0249Z" fill="#EC2127"/>
<path fill-rule="evenodd" clip-rule="evenodd" d="M87.3204 28.368C86.9915 28.328 86.8387 28.3134 86.6179 28.3134C84.8195 28.3134 83.9088 28.9691 83.9088 30.2519C83.9088 31.0427 84.3598 31.5465 85.0503 31.5465C86.3422 31.5465 87.2638 30.2519 87.3204 28.368ZM89.622 34.0249H87.0003L87.0613 32.7064C86.2638 33.7579 85.1956 34.2456 83.7489 34.2456C82.03 34.2456 80.8516 32.8304 80.8516 30.7857C80.8516 27.6855 82.9003 25.8856 86.4131 25.8856C86.7692 25.8856 87.2309 25.9135 87.6982 25.9797C87.7952 25.5596 87.8235 25.3783 87.8235 25.1556C87.8235 24.3168 87.2743 23.9986 85.7931 23.9986C84.8933 23.9986 83.8693 24.1355 83.1677 24.3614L82.7181 24.4895L82.4447 24.5718L82.8846 21.7236C84.4651 21.2301 85.5022 21.0399 86.6654 21.0399C89.3866 21.0399 90.8264 22.3296 90.8264 24.7634C90.8264 25.3956 90.772 25.8646 90.5672 27.2826L89.9005 31.7822L89.8027 32.5948L89.7143 33.2419L89.6566 33.6842L89.622 34.0249Z" fill="#EC2127"/>
<path fill-rule="evenodd" clip-rule="evenodd" d="M98.4525 21.2203C98.359 21.2014 98.2554 21.1875 98.1345 21.1875C97.0965 21.1875 96.503 21.742 95.5311 23.255L95.8132 21.3251H92.953L91.0195 34.0243H94.1857C95.3229 26.2626 95.6215 24.9222 97.1343 24.9222C97.2324 24.9222 97.2258 24.9133 97.3554 24.9352C97.6419 23.4049 98.0286 22.2798 98.5601 21.2537L98.4525 21.2203Z" fill="#EC2127"/>
<path fill-rule="evenodd" clip-rule="evenodd" d="M85.1832 46.3399C85.1832 49.2188 84.2974 50.9139 82.9011 50.9139C81.8817 50.9456 81.2636 49.8026 81.2636 48.0931C81.2636 46.0714 82.1666 43.7798 83.6155 43.7798C84.7802 43.7801 85.1832 45.0217 85.1832 46.3399ZM88.2927 46.3928C88.2927 43.1928 86.7211 40.702 83.7671 40.702C80.3664 40.702 78.1641 43.7309 78.1641 48.1898C78.1641 51.3821 79.4657 53.9923 82.6854 53.9923C85.9345 53.9923 88.2927 51.6779 88.2927 46.3928Z" fill="#F89620"/>
<path fill-rule="evenodd" clip-rule="evenodd" d="M79.1799 38.4562L78.6965 41.8402C77.6454 41.2431 76.8806 40.9953 76.054 40.9953C73.8448 40.9953 72.3018 43.4127 72.3018 46.8493C72.3018 49.2218 73.3351 50.6571 75.0564 50.6571C75.7903 50.6571 76.5934 50.405 77.5682 49.8517L77.0562 53.4143C75.9636 53.753 75.2503 53.869 74.4389 53.869C71.2561 53.869 69.2734 51.2807 69.2734 47.1273C69.2734 41.5386 72.0097 37.6385 75.929 37.6385C76.4364 37.6385 76.8855 37.7032 77.2567 37.8062L78.466 38.1515C78.8392 38.3006 78.9165 38.3268 79.1799 38.4562Z" fill="#F89620"/>
<path fill-rule="evenodd" clip-rule="evenodd" d="M59.6313 40.7809C59.5412 40.7559 59.4374 40.7458 59.3278 40.7458C58.3691 40.7458 57.8068 41.3026 56.9081 42.8104L57.1696 40.884H54.4962L52.6914 53.5846H55.6434C56.7054 45.8151 56.9862 44.4782 58.4023 44.4782C58.4858 44.4782 58.4944 44.4782 58.6177 44.4926C58.8839 42.9563 59.2423 41.8309 59.7388 40.8028L59.6313 40.7809Z" fill="#F89620"/>
<path fill-rule="evenodd" clip-rule="evenodd" d="M98.1948 53.4484H95.4053L95.5488 52.2088C94.7374 53.1863 93.8934 53.6191 92.8137 53.6191C90.6625 53.6191 89.2422 51.5194 89.2422 48.3449C89.2422 44.1279 91.4468 40.5512 94.0533 40.5512C95.2033 40.5512 96.076 41.0979 96.8822 42.3013L97.5335 37.8357H100.439L98.1948 53.4484ZM93.8302 50.461C95.2208 50.461 96.1795 48.6977 96.1795 46.1819C96.1795 44.5633 95.6318 43.6943 94.6164 43.6943C93.2736 43.6943 92.3194 45.4596 92.3194 47.9668C92.3194 49.6217 92.8314 50.461 93.8302 50.461Z" fill="#F89620"/>
<path fill-rule="evenodd" clip-rule="evenodd" d="M31.9448 53.3957C30.9406 53.7442 29.9622 53.9128 28.9205 53.9128C25.6233 53.9128 23.9023 51.9567 23.9023 48.2254C23.9023 43.8672 26.0915 40.6521 29.0632 40.6521C31.4966 40.6521 33.0483 42.4494 33.0483 45.2711C33.0483 46.2037 32.9427 47.1176 32.6902 48.4053H26.8057C26.788 48.5949 26.7814 48.689 26.7814 48.7998C26.7814 50.2805 27.6629 51.0275 29.3753 51.0275C30.4304 51.0275 31.3842 50.78 32.4416 50.2233L31.9448 53.3957ZM30.2939 45.8397C30.3074 45.5712 30.316 45.3574 30.316 45.1943C30.316 44.1587 29.7974 43.5527 28.9202 43.5527C27.9772 43.5527 27.3065 44.3678 27.0365 45.8264L30.2939 45.8397Z" fill="#F89620"/>
<path fill-rule="evenodd" clip-rule="evenodd" d="M67.0638 53.3957C66.0565 53.7442 65.076 53.9128 64.0381 53.9128C60.7343 53.9128 59.0156 51.9567 59.0156 48.2254C59.0156 43.8672 61.2071 40.6521 64.1765 40.6521C66.6105 40.6521 68.167 42.4494 68.167 45.2711C68.167 46.2037 68.0569 47.1176 67.7955 48.4053H61.9238C61.9058 48.5949 61.8949 48.689 61.8949 48.7998C61.8949 50.2805 62.7744 51.0275 64.4865 51.0275C65.5419 51.0275 66.4984 50.78 67.5561 50.2233L67.0638 53.3957ZM65.4038 45.8397C65.4232 45.5712 65.4341 45.3574 65.4341 45.1943C65.4341 44.1587 64.9113 43.5527 64.0378 43.5527C63.0945 43.5527 62.4246 44.3678 62.1518 45.8264L65.4038 45.8397Z" fill="#F89620"/>
<path fill-rule="evenodd" clip-rule="evenodd" d="M108.267 53.3967C107.246 53.7451 106.279 53.9137 105.233 53.9137C101.936 53.9137 100.211 51.9576 100.211 48.2264C100.211 43.8681 102.407 40.6531 105.376 40.6531C107.81 40.6531 109.36 42.4504 109.36 45.2721C109.36 46.2047 109.258 47.1185 108.997 48.4062H103.119C103.099 48.5958 103.094 48.6899 103.094 48.8007C103.094 50.2815 103.976 51.0285 105.689 51.0285C106.745 51.0285 107.697 50.781 108.757 50.2242L108.267 53.3967ZM106.607 45.8407C106.62 45.5722 106.629 45.3584 106.629 45.1952C106.629 44.1596 106.113 43.5536 105.233 43.5536C104.29 43.5536 103.623 44.3688 103.349 45.8274L106.607 45.8407Z" fill="#F89620"/>
<path fill-rule="evenodd" clip-rule="evenodd" d="M23.2054 41.3554C22.6274 40.9664 21.8448 40.6266 20.7391 40.6266C19.5456 40.6266 18.5851 40.8755 18.5851 42.1531C18.5851 44.4093 22.9371 43.5668 22.9371 48.3984C22.9371 52.7992 20.0647 53.9402 17.4662 53.9402C16.3102 53.9402 14.9802 53.5554 14 53.1172L14.7056 49.8835C15.2971 50.4239 16.4903 50.7942 17.4662 50.7942C18.3961 50.7942 19.8533 50.5387 19.8533 48.906C19.8533 46.3493 15.5036 47.3003 15.5036 42.8129C15.5036 38.7079 18.0446 37.4783 20.4957 37.4783C21.876 37.4783 23.1728 37.682 23.9333 38.1905L23.2054 41.3554Z" fill="#F89620"/>
<path fill-rule="evenodd" clip-rule="evenodd" d="M40.5919 53.3918C39.983 53.6865 39.1699 53.8804 37.9698 53.8804C35.3893 53.8804 33.7891 51.2855 33.7891 48.1263C33.7891 43.9916 36.1038 40.6932 39.5105 40.6932C40.2536 40.6932 41.3876 41.0166 42.2823 41.5383L41.6293 44.5714C40.9961 44.1528 40.3368 43.8866 39.6578 43.8866C38.0793 43.8866 36.9518 45.342 36.9518 47.9499C36.9518 49.4514 37.7695 50.6829 39.0618 50.6829C39.8309 50.6829 40.372 50.5198 41.0338 50.1305L40.5919 53.3918Z" fill="#F89620"/>
<path fill-rule="evenodd" clip-rule="evenodd" d="M51.6322 50.2119C51.4806 51.3045 51.3399 52.3651 51.2561 53.5049H48.414L48.6537 51.4521H48.6248C47.7347 52.8474 46.8137 53.7972 45.2046 53.7972C43.4201 53.7972 42.4531 51.9081 42.4531 49.441C42.4531 48.5907 42.5058 48.1107 42.6945 46.7828L43.4991 40.9046H46.6621L45.8135 46.8C45.7277 47.4334 45.607 48.0615 45.607 48.7167C45.607 49.4597 45.9434 50.2113 46.7963 50.1653C48.0928 50.1653 48.8579 48.5697 49.0755 46.7079L49.9485 40.9043H53.0103L51.6322 50.2119Z" fill="#F89620"/>
<path fill-rule="evenodd" clip-rule="evenodd" d="M111.213 53.3516H110.735V51.2452H110.043V50.7941H111.904V51.2452H111.213V53.3516Z" fill="#F89620"/>
<path fill-rule="evenodd" clip-rule="evenodd" d="M114.386 53.3521H113.939V51.2141H113.933L113.506 53.3521H113.037L112.62 51.2141H112.614V53.3521H112.168V50.7946H112.865L113.28 52.8108H113.287L113.694 50.7946H114.386V53.3521Z" fill="#F89620"/>
</svg>
