<svg width="19" height="20" viewBox="0 0 19 20" xmlns="http://www.w3.org/2000/svg"><path d="M15.321.714c.974 0 1.807.346 2.499 1.038a3.406 3.406 0 0 1 1.037 2.498v11.786c0 .974-.346 1.806-1.037 2.498a3.406 3.406 0 0 1-2.499 1.038h-2.308v-7.305h2.444l.368-2.848h-2.812V7.602c0-.459.097-.802.289-1.032.192-.229.567-.343 1.123-.343l1.498-.013v-2.54c-.516-.075-1.244-.111-2.185-.111-1.113 0-2.003.327-2.67.982-.668.654-1.001 1.58-1.001 2.774v2.1H7.612v2.848h2.455v7.305H3.536a3.405 3.405 0 0 1-2.499-1.038A3.406 3.406 0 0 1 0 16.036V4.25c0-.974.346-1.807 1.037-2.498A3.405 3.405 0 0 1 3.536.714H15.32z"/></svg>