<svg width="49" height="42" viewBox="0 0 49 42" xmlns="http://www.w3.org/2000/svg"><path d="M15.059 3.89l1.938.493-1.938-.493zm19.882 0l1.939-.494-1.939.494zm.665 2.61l-1.938.494A2 2 0 0 0 35.606 8.5v-2zm-.873.623l-1.938.494 1.938-.494zm-.76-2.987l-1.939.494 1.938-.494zm-17.945 0l-1.938-.493 1.938.493zm-.761 2.987l-1.938-.493 1.938.493zm-.873-.623v2a2 2 0 0 0 1.938-1.506L14.394 6.5zm5.025-8a6.5 6.5 0 0 0-6.299 4.896l3.877.987A2.5 2.5 0 0 1 19.419 2.5v-4zm11.162 0H19.419v4h11.162v-4zm6.299 4.896a6.5 6.5 0 0 0-6.3-4.896v4a2.5 2.5 0 0 1 2.423 1.883l3.877-.987zm.664 2.61l-.664-2.61-3.877.987.665 2.61 3.876-.987zM42 4.5h-6.394v4H42v-4zm8.5 8.5A8.5 8.5 0 0 0 42 4.5v4a4.5 4.5 0 0 1 4.5 4.5h4zm0 22V13h-4v22h4zM42 43.5a8.5 8.5 0 0 0 8.5-8.5h-4a4.5 4.5 0 0 1-4.5 4.5v4zm-35 0h35v-4H7v4zM-1.5 35A8.5 8.5 0 0 0 7 43.5v-4A4.5 4.5 0 0 1 2.5 35h-4zm0-7.682V35h4v-7.682h-4zm2.5-2.5a2.5 2.5 0 0 0-2.5 2.5h4a1.5 1.5 0 0 1-1.5 1.5v-4zm2.5 2.5a2.5 2.5 0 0 0-2.5-2.5v4a1.5 1.5 0 0 1-1.5-1.5h4zM3.5 35v-7.682h-4V35h4zM7 38.5A3.5 3.5 0 0 1 3.5 35h-4A7.5 7.5 0 0 0 7 42.5v-4zm35 0H7v4h35v-4zm3.5-3.5a3.5 3.5 0 0 1-3.5 3.5v4a7.5 7.5 0 0 0 7.5-7.5h-4zm0-22v22h4V13h-4zM42 9.5a3.5 3.5 0 0 1 3.5 3.5h4A7.5 7.5 0 0 0 42 5.5v4zm-6.782 0H42v-4h-6.782v4zm-2.423-1.883A2.5 2.5 0 0 0 35.217 9.5v-4a1.5 1.5 0 0 1 1.454 1.13l-3.876.987zm-.76-2.987l.76 2.987 3.876-.987-.76-2.987-3.877.987zM30.58 3.5a1.5 1.5 0 0 1 1.453 1.13l3.877-.987A5.5 5.5 0 0 0 30.58-.5v4zm-11.162 0h11.162v-4H19.419v4zm-1.453 1.13a1.5 1.5 0 0 1 1.453-1.13v-4a5.5 5.5 0 0 0-5.33 4.143l3.877.987zm-.76 2.987l.76-2.987-3.877-.987-.76 2.987 3.876.987zM14.782 9.5a2.5 2.5 0 0 0 2.422-1.883L13.33 6.63a1.5 1.5 0 0 1 1.454-1.13v4zM7 9.5h7.783v-4H7v4zM3.5 13A3.5 3.5 0 0 1 7 9.5v-4A7.5 7.5 0 0 0-.5 13h4zm0 2.328V13h-4v2.328h4zm-2.5 2.5a2.5 2.5 0 0 0 2.5-2.5h-4a1.5 1.5 0 0 1 1.5-1.5v4zm-2.5-2.5a2.5 2.5 0 0 0 2.5 2.5v-4a1.5 1.5 0 0 1 1.5 1.5h-4zm0-2.328v2.328h4V13h-4zM7 4.5A8.5 8.5 0 0 0-1.5 13h4A4.5 4.5 0 0 1 7 8.5v-4zm7.394 0H7v4h7.394v-4zM13.12 3.396l-.664 2.61 3.876.988.665-2.61-3.877-.988zM3.5 19.315a2.5 2.5 0 0 0-2.5-2.5v4a1.5 1.5 0 0 1-1.5-1.5h4zm0 3.313v-3.313h-4v3.313h4zm-2.5 2.5a2.5 2.5 0 0 0 2.5-2.5h-4a1.5 1.5 0 0 1 1.5-1.5v4zm-2.5-2.5a2.5 2.5 0 0 0 2.5 2.5v-4a1.5 1.5 0 0 1 1.5 1.5h-4zm0-3.313v3.313h4v-3.313h-4zm2.5-2.5a2.5 2.5 0 0 0-2.5 2.5h4a1.5 1.5 0 0 1-1.5 1.5v-4z" mask="url(#mask-photo)"/><path fill-rule="evenodd" clip-rule="evenodd" d="M24.5 34C30.299 34 35 29.299 35 23.5S30.299 13 24.5 13 14 17.701 14 23.5 18.701 34 24.5 34z" stroke="#FF5D00"/><path d="M24.5 16a7.5 7.5 0 0 0-7.5 7.5" stroke="#FF5D00" stroke-linecap="round" stroke-linejoin="round"/><rect x="6.5" y="3.5" width="6" height="2" rx="1" stroke="#FF5D00"/><path d="M33.5 12.5h5M40.5 12.5h2" stroke="#FF5D00" stroke-linecap="round" stroke-linejoin="round"/></svg>