<svg width="120" height="70" viewBox="0 0 120 70" fill="none" xmlns="http://www.w3.org/2000/svg">
<path d="M78.6333 40.3396L79.5425 40.6145C79.4814 40.8694 79.3852 41.0824 79.254 41.2534C79.1227 41.4244 78.9593 41.5534 78.7639 41.6404C78.57 41.7274 78.3226 41.771 78.0219 41.771C77.657 41.771 77.3585 41.7183 77.1265 41.6129C76.8959 41.5061 76.6967 41.319 76.5287 41.0519C76.3608 40.7847 76.2768 40.4427 76.2768 40.0259C76.2768 39.4702 76.4242 39.0434 76.7188 38.7457C77.015 38.4465 77.4333 38.2969 77.9738 38.2969C78.3967 38.2969 78.7288 38.3824 78.97 38.5534C79.2127 38.7244 79.3929 38.987 79.5104 39.3412L78.5944 39.545C78.5623 39.4427 78.5288 39.3679 78.4936 39.3206C78.4356 39.2412 78.3646 39.1801 78.2807 39.1373C78.1967 39.0946 78.1028 39.0732 77.999 39.0732C77.7639 39.0732 77.5837 39.1679 77.4585 39.3572C77.3639 39.4977 77.3165 39.7183 77.3165 40.019C77.3165 40.3916 77.373 40.6473 77.486 40.7862C77.599 40.9236 77.7578 40.9923 77.9623 40.9923C78.1608 40.9923 78.3104 40.9366 78.4112 40.8251C78.5135 40.7137 78.5875 40.5519 78.6333 40.3396ZM79.9181 40.0351C79.9181 39.487 80.0708 39.0602 80.3761 38.7549C80.6814 38.4496 81.1066 38.2969 81.6517 38.2969C82.2105 38.2969 82.641 38.4473 82.9433 38.748C83.2456 39.0473 83.3967 39.4671 83.3967 40.0076C83.3967 40.3999 83.3303 40.7221 83.1975 40.974C83.0662 41.2244 82.8754 41.4198 82.625 41.5603C82.3761 41.6992 82.0654 41.7687 81.6929 41.7687C81.3143 41.7687 81.0005 41.7084 80.7517 41.5877C80.5043 41.4671 80.3036 41.2763 80.1494 41.0152C79.9952 40.7542 79.9181 40.4274 79.9181 40.0351ZM80.9555 40.0396C80.9555 40.3786 81.0181 40.6221 81.1433 40.7702C81.27 40.9183 81.4418 40.9923 81.6585 40.9923C81.8815 40.9923 82.054 40.9198 82.1761 40.7748C82.2982 40.6297 82.3593 40.3694 82.3593 39.9938C82.3593 39.6778 82.2952 39.4473 82.167 39.3022C82.0402 39.1557 81.8677 39.0824 81.6494 39.0824C81.4402 39.0824 81.2723 39.1564 81.1456 39.3045C81.0189 39.4526 80.9555 39.6977 80.9555 40.0396ZM83.9441 38.3541H85.309L85.8357 40.3969L86.3601 38.3541H87.7204V41.7114H86.8731V39.1511L86.2158 41.7114H85.4487L84.7937 39.1511V41.7114H83.9441V38.3541ZM88.38 38.3541H90.1044C90.48 38.3541 90.7609 38.4434 90.9472 38.6221C91.135 38.8007 91.2289 39.0549 91.2289 39.3847C91.2289 39.7236 91.1266 39.9885 90.922 40.1793C90.7189 40.3702 90.4082 40.4656 89.9899 40.4656H89.422V41.7114H88.38V38.3541ZM89.422 39.7854H89.6762C89.8762 39.7854 90.0166 39.7511 90.0975 39.6824C90.1785 39.6122 90.2189 39.5228 90.2189 39.4144C90.2189 39.3091 90.1838 39.2198 90.1136 39.1465C90.0434 39.0732 89.9113 39.0366 89.7174 39.0366H89.422V39.7854ZM91.7739 38.3541H92.8113V40.8847H94.4304V41.7114H91.7739V38.3541ZM94.9434 38.3541H95.9831V41.7114H94.9434V38.3541ZM98.7953 41.1572H97.6136L97.451 41.7114H96.3907L97.6526 38.3541H98.7839L100.046 41.7114H98.9602L98.7953 41.1572ZM98.5778 40.4312L98.2068 39.2244L97.8381 40.4312H98.5778ZM100.387 38.3541H101.356L102.62 40.2114V38.3541H103.598V41.7114H102.62L101.363 39.8679V41.7114H100.387V38.3541ZM104.051 38.3541H107.205V39.1831H106.147V41.7114H105.109V39.1831H104.051V38.3541Z" fill="#225E63"/>
<path fill-rule="evenodd" clip-rule="evenodd" d="M65.957 43.8696L69.0173 42.8626L68.0264 40.5579C67.2897 41.5076 66.564 42.7353 65.957 43.8696ZM64.9146 33.32L58.9134 19.3615L14.9805 21.9658L27.1517 56.6386L50.5819 48.9288C49.0967 46.6923 48.5455 44.0339 50.2681 42.7344C52.1961 41.28 55.0968 42.9621 56.9602 45.3538C58.7485 42.2163 63.7661 34.9708 64.9146 33.32Z" fill="#225E63"/>
<path fill-rule="evenodd" clip-rule="evenodd" d="M57.5485 29.4477C59.3875 29.4477 60.8783 27.9796 60.8783 26.1688C60.8783 24.3579 59.3875 22.8899 57.5485 22.8899C55.7095 22.8899 54.2188 24.3579 54.2188 26.1688C54.2188 27.9796 55.7095 29.4477 57.5485 29.4477ZM54.8242 30.8698H60.2729V45.7235H54.8242V30.8698Z" fill="#FEFEFE"/>
<path fill-rule="evenodd" clip-rule="evenodd" d="M52.1404 35.204C52.1794 35.2279 52.211 35.2084 52.211 35.1615V31.3985C52.211 31.3511 52.1799 31.2937 52.1391 31.271C52.1391 31.271 51.4245 30.7847 49.2435 30.6492C49.1271 30.582 47.229 30.5721 46.7023 30.6492C38.7783 31.3126 38.4844 37.2979 38.4844 37.5713V39.0253C38.4844 39.2039 38.4844 45.3232 46.702 45.8658C47.5048 45.9295 49.0779 45.8658 49.2432 45.8658C51.1358 45.8658 52.4474 45.2707 52.4474 45.2707C52.4891 45.2531 52.5229 45.1998 52.5229 45.1529V41.6297C52.5229 41.5822 52.4928 41.5654 52.4535 41.5904C52.4535 41.5904 51.8653 42.084 49.2786 42.3474C48.5453 42.4335 48.1974 42.3931 47.9331 42.3474C44.2656 41.7035 44.091 38.898 44.091 38.898C44.086 38.8516 44.0819 38.7753 44.0819 38.7283V37.6537C44.0819 37.6064 44.0861 37.53 44.0924 37.4835C44.0924 37.4835 44.3403 34.478 47.9332 34.161H49.2788C50.8658 34.3847 52.1404 35.204 52.1404 35.204Z" fill="#FEFEFE"/>
<path fill-rule="evenodd" clip-rule="evenodd" d="M23.3672 45.6653C23.3672 45.7125 23.4036 45.7509 23.4488 45.7509H28.7567C28.8018 45.7509 28.8383 45.7121 28.8383 45.6653V41.3546C28.8383 41.3074 28.8746 41.2715 28.9202 41.2741C28.9202 41.2741 37.3926 41.9141 37.3926 35.9761C37.3926 31.2907 32.077 30.7766 30.327 30.8624C30.2918 30.8641 23.4501 30.8624 23.4501 30.8624C23.4045 30.8624 23.3675 30.9012 23.3675 30.9479L23.3672 45.6653ZM28.7438 37.9818V34.098H30.0427C30.0427 34.098 31.9315 34.1867 32.0785 35.5283C32.1129 35.6332 32.1046 36.2899 32.0783 36.3261C31.835 37.9048 30.194 37.9821 30.194 37.9821L28.7438 37.9818Z" fill="#FEFEFE"/>
<path fill-rule="evenodd" clip-rule="evenodd" d="M57.6958 52.8954C58.1386 52.8954 58.4778 52.8954 59.0376 52.636C60.9723 51.5739 67.4841 34.9705 74.3524 29.8636C74.3943 29.8309 74.4504 29.7832 74.4829 29.7347C74.5279 29.6674 74.5297 29.5987 74.5297 29.5987C74.5297 29.5987 74.5297 29.2562 73.5114 29.2562C67.3969 29.0821 61.0384 42.4646 57.6958 47.7594C57.6541 47.8177 57.4242 47.7594 57.4242 47.7594C57.4242 47.7594 55.1843 45.0008 53.2384 43.942C53.1978 43.9199 52.9764 43.8495 52.7467 43.8673C52.5929 43.8673 51.6877 44.0574 51.266 44.522C50.7675 45.0711 50.7778 45.3793 50.7822 46.0475C50.7826 46.1019 50.8161 46.322 50.8778 46.4347C51.3535 47.3031 53.5267 50.4227 55.3073 52.1438C55.5828 52.3485 56.002 52.8954 57.6958 52.8954Z" fill="#2BBC5D"/>
<path d="M76.1424 26.4246H81.1381C82.1229 26.4246 82.9172 26.5583 83.5209 26.8255C84.1296 27.0927 84.6319 27.4762 85.0278 27.9761C85.4237 28.4759 85.7107 29.0574 85.8889 29.7205C86.067 30.3836 86.1561 31.0863 86.1561 31.8286C86.1561 32.9916 86.0225 33.8947 85.7552 34.5381C85.493 35.1764 85.1268 35.7134 84.6566 36.1489C84.1865 36.5794 83.6817 36.8664 83.1423 37.0099C82.405 37.2079 81.7369 37.3069 81.1381 37.3069H76.1424V26.4246ZM79.505 28.8891V34.835H80.329C81.0317 34.835 81.5315 34.7583 81.8284 34.6049C82.1254 34.4465 82.358 34.1743 82.5262 33.7883C82.6945 33.3974 82.7786 32.7664 82.7786 31.8954C82.7786 30.7424 82.5905 29.9531 82.2144 29.5275C81.8383 29.1019 81.2148 28.8891 80.3438 28.8891H79.505ZM87.3438 33.7067L90.5431 33.5062C90.6124 34.0259 90.7534 34.4218 90.9662 34.6939C91.3126 35.1344 91.8075 35.3546 92.4509 35.3546C92.9309 35.3546 93.2996 35.2432 93.5569 35.0205C93.8192 34.7929 93.9503 34.5306 93.9503 34.2337C93.9503 33.9516 93.8266 33.6992 93.5792 33.4766C93.3317 33.2539 92.7577 33.0435 91.857 32.8456C90.3823 32.514 89.3307 32.0736 88.7022 31.5243C88.0688 30.975 87.752 30.2747 87.752 29.4236C87.752 28.8644 87.9129 28.3373 88.2345 27.8424C88.5612 27.3426 89.0486 26.9517 89.6969 26.6696C90.3501 26.3826 91.2434 26.2391 92.3766 26.2391C93.7672 26.2391 94.8262 26.4989 95.5537 27.0185C96.2861 27.5331 96.7216 28.3546 96.8602 29.4829L93.6905 29.6685C93.6064 29.1786 93.4282 28.8223 93.156 28.5996C92.8888 28.3769 92.5177 28.2656 92.0426 28.2656C91.6516 28.2656 91.3572 28.3497 91.1592 28.5179C90.9613 28.6813 90.8623 28.8817 90.8623 29.1192C90.8623 29.2924 90.944 29.4483 91.1073 29.5869C91.2656 29.7304 91.6417 29.864 92.2356 29.9877C93.7053 30.3044 94.7569 30.6261 95.3904 30.9527C96.0288 31.2744 96.4915 31.6752 96.7785 32.1552C97.0705 32.6353 97.2165 33.1722 97.2165 33.7661C97.2165 34.4638 97.0235 35.1072 96.6375 35.696C96.2515 36.2849 95.7121 36.7328 95.0192 37.0396C94.3264 37.3415 93.453 37.4924 92.3989 37.4924C90.5481 37.4924 89.2664 37.1361 88.5537 36.4235C87.8411 35.7109 87.4378 34.8053 87.3438 33.7067Z" fill="#225E63"/>
<path d="M98.2028 33.7071L101.402 33.5067C101.471 34.0263 101.612 34.4222 101.825 34.6943C102.172 35.1348 102.667 35.355 103.31 35.355C103.79 35.355 104.159 35.2437 104.416 35.021C104.678 34.7933 104.809 34.531 104.809 34.2341C104.809 33.952 104.686 33.6997 104.438 33.477C104.191 33.2543 103.617 33.044 102.716 32.846C101.241 32.5144 100.19 32.074 99.5612 31.5247C98.9278 30.9754 98.6111 30.2751 98.6111 29.424C98.6111 28.8648 98.7719 28.3377 99.0936 27.8429C99.4202 27.343 99.9076 26.9521 100.556 26.67C101.209 26.383 102.102 26.2395 103.236 26.2395C104.626 26.2395 105.685 26.4993 106.413 27.0189C107.145 27.5336 107.581 28.355 107.719 29.4834L104.55 29.6689C104.465 29.179 104.287 28.8227 104.015 28.6C103.748 28.3773 103.377 28.266 102.902 28.266C102.511 28.266 102.216 28.3501 102.018 28.5184C101.82 28.6817 101.721 28.8821 101.721 29.1196C101.721 29.2928 101.803 29.4487 101.966 29.5873C102.125 29.7308 102.501 29.8644 103.095 29.9881C104.564 30.3048 105.616 30.6265 106.249 30.9531C106.888 31.2748 107.351 31.6756 107.638 32.1557C107.93 32.6357 108.075 33.1726 108.075 33.7665C108.075 34.4642 107.882 35.1076 107.496 35.6965C107.11 36.2854 106.571 36.7332 105.878 37.04C105.185 37.3419 104.312 37.4928 103.258 37.4928C101.407 37.4928 100.125 37.1365 99.4128 36.4239C98.7002 35.7113 98.2968 34.8057 98.2028 33.7071Z" fill="#225E63"/>
</svg>
