<svg width="31" height="33" viewBox="0 0 31 33" xmlns="http://www.w3.org/2000/svg"><g mask="url(#mask-vb)"><path fill-rule="evenodd" clip-rule="evenodd" d="M27.5 3.29C26.688 2.536 23.405.136 16.094.103c0 0-8.622-.524-12.825 3.36C.929 5.82.106 9.267.019 13.544c-.086 4.276-.2 12.287 7.47 14.46l.007.002-.004 3.315s-.048 1.342.828 1.615c1.062.332 1.685-.688 2.698-1.788a84.648 84.648 0 0 0 1.903-2.167c5.246.442 9.28-.572 9.737-.722 1.06-.347 7.053-1.119 8.027-9.13 1.006-8.26-.488-13.483-3.185-15.84zm.907 15.242c-.825 6.69-5.684 7.113-6.579 7.402-.381.123-3.926 1.01-8.38.717l-4.83 5.265-.004-6.067-.038-.01c-6.488-1.814-6.27-8.617-6.197-12.188.074-3.571.74-6.497 2.72-8.464 3.554-3.243 10.877-2.759 10.877-2.759 6.185.028 9.15 1.903 9.837 2.531 2.281 1.968 3.444 6.676 2.594 13.573z"/></g><path fill-rule="evenodd" clip-rule="evenodd" d="M22.969 19.673a44.52 44.52 0 0 0-1.464-1.202 18.802 18.802 0 0 0-1.577-1.03c-.723-.413-1.462-.154-1.767.252l-.633.815c-.325.414-.825.344-.957.317-.937-.235-1.932-.82-2.951-1.808-1.03-.996-1.655-2.036-1.877-3.117l-.016-.072c-.06-.444.014-.65.195-.953l.034-.028c.428-.398 1.222-.883 1.328-1.344.312-.802-1.042-2.473-1.235-2.768 0 0-.985-1.304-1.335-1.553-.378-.315-.964-.495-1.554-.132l-.03.022c-1.697 1.15-2.312 1.81-2.144 2.795l.087.396c.86 2.713 2.522 5.607 5 8.183 2.45 2.544 5.102 4.068 7.715 5.123.679.226 1.383.032 2.105-.585l.012-.01a6.735 6.735 0 0 0 1.318-1.664l.003-.012c.318-.627.211-1.22-.257-1.625zM18.792 13.698a.183.183 0 0 1-.186-.17c-.033-.628-.214-1.11-.54-1.432-.323-.32-.808-.498-1.44-.53a.182.182 0 0 1-.177-.189.185.185 0 0 1 .197-.17c.73.038 1.297.254 1.69.64.389.386.606.945.643 1.664a.183.183 0 0 1-.177.187h-.01z"/><path fill-rule="evenodd" clip-rule="evenodd" d="M20.684 14.32h-.005a.2.2 0 0 1-.187-.207c.03-1.37-.358-2.53-1.153-3.446a4.207 4.207 0 0 0-1.428-1.075c-.554-.255-1.2-.413-1.917-.47a.2.2 0 0 1-.177-.216c.008-.112.1-.197.205-.188 1.532.119 2.743.682 3.601 1.675.863.995 1.284 2.25 1.253 3.73a.198.198 0 0 1-.192.198z"/><path fill-rule="evenodd" clip-rule="evenodd" d="M22.585 14.943a.193.193 0 0 1-.19-.193c-.01-1.162-.184-2.213-.522-3.125a6.528 6.528 0 0 0-1.508-2.366 6.796 6.796 0 0 0-2.248-1.504c-.829-.336-1.752-.51-2.745-.516a.193.193 0 0 1-.188-.197.193.193 0 0 1 .19-.193h.001c2.084.016 3.852.732 5.256 2.132a6.894 6.894 0 0 1 1.597 2.506c.354.954.538 2.052.547 3.26a.193.193 0 0 1-.188.196h-.002z"/></svg>