<svg width="22" height="23" viewBox="0 0 22 23" xmlns="http://www.w3.org/2000/svg"><path fill-rule="evenodd" clip-rule="evenodd" d="M22 11.143c0-1.49-.29-2.914-.872-4.272-.58-1.359-1.362-2.53-2.345-3.511-.982-.983-2.152-1.764-3.51-2.345A10.753 10.753 0 0 0 11 .143c-1.49 0-2.914.29-4.272.872-1.359.58-2.53 1.362-3.511 2.345-.983.982-1.764 2.152-2.345 3.51A10.753 10.753 0 0 0 0 11.144c0 1.49.29 2.914.872 4.272.58 1.359 1.362 2.53 2.345 3.512.982.982 2.152 1.763 3.51 2.344 1.36.581 2.783.872 4.273.872 1.49 0 2.914-.29 4.272-.872 1.359-.58 2.53-1.362 3.511-2.345.983-.982 1.764-2.152 2.345-3.51.581-1.36.872-2.783.872-4.273zm-5.598-3.462l-1.805 8.508c-.139.605-.47.761-.994.466l-2.75-2.025-1.326 1.276c-.18.18-.364.27-.553.27l.197-2.799 5.095-4.603c.09-.082.106-.144.049-.185-.09-.065-.221-.04-.393.074L7.624 12.63 4.91 11.78c-.197-.057-.328-.137-.393-.239-.066-.102-.055-.21.03-.325.086-.115.248-.217.485-.307l10.608-4.088c.261-.099.472-.07.632.086.16.155.202.413.129.773z"/></svg>