<svg width="14" height="11" viewBox="0 0 14 11" xmlns="http://www.w3.org/2000/svg"><path fill-rule="evenodd" clip-rule="evenodd" d="M13.617 2.43c.255-.375.383-.769.383-1.18 0-.344-.124-.638-.371-.883A1.208 1.208 0 0 0 12.75 0H1.25C.849 0 .54.135.324.406.108.677 0 1.016 0 1.422c0 .328.143.683.43 1.066.286.383.59.684.914.903L4.992 5.93l.454.325c.116.083.216.153.3.21l.12.078c.085.055.18.113.286.176.16.093.309.164.45.21.14.048.27.071.39.071l.14-.008c.084-.01.173-.031.266-.062.141-.047.29-.117.45-.211.159-.094.294-.179.406-.254l.09-.061.626-.447 3.694-2.566c.38-.266.698-.586.953-.961zM14 9.75V3.547c-.224.25-.484.476-.781.68-1.367.925-2.47 1.685-3.31 2.28l-1.055.757-.249.17a4.464 4.464 0 0 1-.738.375 2.251 2.251 0 0 1-.86.191l-.177-.008a2.41 2.41 0 0 1-.697-.183 4.464 4.464 0 0 1-.738-.375A13.58 13.58 0 0 1 5 7.16l-.46-.334c-.5-.363-1.247-.886-2.242-1.57L.79 4.228A4.143 4.143 0 0 1 0 3.547V9.75c0 .344.122.638.367.883s.54.367.883.367h11.5c.344 0 .638-.122.883-.367s.367-.54.367-.883z"/></svg>