<svg xmlns="http://www.w3.org/2000/svg" width="25" height="24" viewBox="0 0 25 24"><g fill-rule="evenodd" stroke="#FF5D00" transform="rotate(45 14.621 19.95)"><path d="M5.25 3L6.7 1.067a1 1 0 0 1 1.6 0L9.75 3a10.18 10.18 0 0 1 2.016 6.743L11 22H4L3.234 9.743A10.18 10.18 0 0 1 5.25 3z"/><circle cx="7.5" cy="9.5" r="1.5"/><path stroke-linecap="round" stroke-linejoin="round" d="M3.2 16.17L0 18.135v6.14L4 22m7.8-5.83l3.2 1.965v6.14L11 22"/><path d="M6 22.5c0 1.933.672 3.5 1.5 3.5S9 24.433 9 22.5"/><path stroke-linecap="round" d="M4 21.5c0 1.933.895 3.5 2 3.5m5-3.5c0 1.933-.895 3.5-2 3.5"/></g></svg>