<svg width="120" height="70" viewBox="0 0 120 70" fill="none" xmlns="http://www.w3.org/2000/svg">
<path d="M75.5509 28.3954C77.18 31.7256 77.6972 35.4909 77.0264 39.1371C76.3556 42.7833 74.5322 46.1179 71.8245 48.6503C69.1168 51.1828 65.6678 52.7793 61.9849 53.2049C58.3021 53.6306 54.5798 52.8629 51.3658 51.0149C48.1518 49.1669 45.6159 46.3361 44.131 42.9391C42.6462 39.542 42.2908 35.7581 43.1173 32.144C43.9438 28.5299 45.9085 25.2765 48.7222 22.8625C51.536 20.4485 55.0503 19.0013 58.748 18.7339L62.8031 12.4161C61.8711 12.3065 60.9336 12.251 59.9952 12.25C54.6772 12.2506 49.5133 14.0361 45.3308 17.3206C41.1483 20.6051 38.1892 25.1984 36.9278 30.3646C35.6663 35.5309 36.1754 40.971 38.3736 45.8135C40.5717 50.6559 44.3316 54.6205 49.0509 57.0719C53.7701 59.5233 59.1757 60.3197 64.4015 59.3336C69.6272 58.3474 74.3708 55.6357 77.8721 51.633C81.3734 47.6303 83.4299 42.5681 83.712 37.2576C83.9942 31.9471 82.4856 26.6956 79.4281 22.3444L75.5509 28.3954Z" fill="#00458D"/>
<path d="M59.9866 25.469C57.194 25.469 54.5158 26.5784 52.5411 28.553C50.5664 30.5277 49.457 33.206 49.457 35.9986H55.5408C55.5408 35.1193 55.8015 34.2597 56.29 33.5286C56.7786 32.7975 57.4729 32.2277 58.2853 31.8912C59.0976 31.5547 59.9915 31.4666 60.854 31.6382C61.7164 31.8097 62.5085 32.2331 63.1303 32.8549C63.752 33.4767 64.1755 34.2688 64.347 35.1312C64.5186 35.9936 64.4305 36.8876 64.094 37.6999C63.7575 38.5123 63.1877 39.2066 62.4566 39.6951C61.7255 40.1837 60.8659 40.4444 59.9866 40.4444V46.5282C62.7792 46.5282 65.4575 45.4188 67.4322 43.4441C69.4068 41.4694 70.5162 38.7912 70.5162 35.9986C70.5162 33.206 69.4068 30.5277 67.4322 28.553C65.4575 26.5784 62.7792 25.469 59.9866 25.469Z" fill="#FFCB02"/>
</svg>
