<svg width="5" height="24" viewBox="0 0 5 24" fill="none" xmlns="http://www.w3.org/2000/svg">

<path d="M0 2.5C0 3.88071 1.11929 5 2.5 5V3C2.22386 3 2 2.77614 2 2.5H0ZM2.5 0C1.11929 0 0 1.11929 0 2.5H2C2 2.22386 2.22386 2 2.5 2V0ZM5 2.5C5 1.11929 3.88071 0 2.5 0V2C2.77614 2 3 2.22386 3 2.5H5ZM2.5 5C3.88071 5 5 3.88071 5 2.5H3C3 2.77614 2.77614 3 2.5 3V5ZM2.5 -1C0.567003 -1 -1 0.567003 -1 2.5H1C1 1.67157 1.67157 1 2.5 1V-1ZM6 2.5C6 0.567003 4.433 -1 2.5 -1V1C3.32843 1 4 1.67157 4 2.5H6ZM2.5 6C4.433 6 6 4.433 6 2.5H4C4 3.32843 3.32843 4 2.5 4V6ZM-1 2.5C-1 4.433 0.567003 6 2.5 6V4C1.67157 4 1 3.32843 1 2.5H-1ZM5 21.5V9.5H3V21.5H5ZM2.5 24C3.88071 24 5 22.8807 5 21.5H3C3 21.7761 2.77614 22 2.5 22V24ZM0 21.5C0 22.8807 1.11929 24 2.5 24V22C2.22386 22 2 21.7761 2 21.5H0ZM0 9.5V21.5H2V9.5H0ZM2.5 7C1.11929 7 0 8.11929 0 9.5H2C2 9.22386 2.22386 9 2.5 9V7ZM5 9.5C5 8.11929 3.88071 7 2.5 7V9C2.77614 9 3 9.22386 3 9.5H5ZM2.5 6C0.567003 6 -1 7.567 -1 9.5H1C1 8.67157 1.67157 8 2.5 8V6ZM6 9.5C6 7.567 4.433 6 2.5 6V8C3.32843 8 4 8.67157 4 9.5H6ZM6 21.5V9.5H4V21.5H6ZM2.5 25C4.433 25 6 23.433 6 21.5H4C4 22.3284 3.32843 23 2.5 23V25ZM-1 21.5C-1 23.433 0.567003 25 2.5 25V23C1.67157 23 1 22.3284 1 21.5H-1ZM-1 9.5V21.5H1V9.5H-1Z" fill="#049FDB" mask="url(#icon-info-1-inside-1)"/>
</svg>
