<svg width="17" height="17" viewBox="0 0 17 17" xmlns="http://www.w3.org/2000/svg"><path fill-rule="evenodd" clip-rule="evenodd" d="M8.5 16a7.5 7.5 0 1 0 0-15 7.5 7.5 0 0 0 0 15z" stroke="#FF5D00"/><path d="M4 10.318c0 .103.019.236.057.4.038.165.077.295.12.39.079.19.31.39.692.602.356.193.709.29 1.057.29a2.248 2.248 0 0 0 .628-.09l.182-.055L7 11.76l.415-.153c.371-.133.702-.29.994-.472.481-.299.981-.708 1.5-1.227.519-.519.928-1.019 1.227-1.5.146-.233.276-.492.39-.776l.3-.812.029-.085c.016-.05.034-.11.054-.182a2.248 2.248 0 0 0 .09-.628c.001-.348-.096-.7-.289-1.057-.212-.382-.413-.613-.602-.693a2.26 2.26 0 0 0-.39-.12 1.876 1.876 0 0 0-.4-.056.318.318 0 0 0-.12.017c-.067.023-.168.167-.3.432l-.092.162-.215.393-.063.112c-.06.108-.119.21-.176.304l-.1.143c-.054.08-.095.146-.121.201a.37.37 0 0 0-.04.162c0 .076.054.17.162.284.108.114.225.218.352.313.127.094.244.195.352.3.108.107.162.194.162.262 0 .034-.01.077-.028.128l-.034.086a.626.626 0 0 1-.014.03l-.03.055-.115.19a5.964 5.964 0 0 1-.989 1.335 5.824 5.824 0 0 1-1.144.879l-.235.136-.177.106a.59.59 0 0 1-.023.013l-.07.03-.047.018a.385.385 0 0 1-.128.028c-.068 0-.155-.054-.261-.162a3.421 3.421 0 0 1-.301-.352 2.771 2.771 0 0 0-.313-.352c-.113-.108-.208-.162-.284-.162a.37.37 0 0 0-.162.04c-.041.02-.09.047-.144.083l-.2.138-.198.116-.338.19-.388.213-.047.027c-.265.132-.41.233-.432.3a.318.318 0 0 0-.017.12z"/></svg>