<svg width="17" height="17" viewBox="0 0 17 17" xmlns="http://www.w3.org/2000/svg"><path fill-rule="evenodd" clip-rule="evenodd" d="M8.5 16a7.5 7.5 0 1 0 0-15 7.5 7.5 0 0 0 0 15z" stroke="#049FDB"/><path fill-rule="evenodd" clip-rule="evenodd" d="M13.588 5.975c.114 0 .212.04.292.12.08.08.12.178.12.293v4.124c0 .115-.04.213-.12.293a.398.398 0 0 1-.293.12h-.825a.39.39 0 0 1-.24-.077.478.478 0 0 1-.155-.198h-.687c-.218.32-.527.521-.928.602a1.67 1.67 0 0 1-.86.601c-.16.172-.344.304-.55.396a1.591 1.591 0 0 1-.653.137c-.24.126-.507.189-.8.189-.291 0-.58-.069-.867-.206a2.804 2.804 0 0 1-.774-.55L4.942 10.65h-.31a.478.478 0 0 1-.154.198.39.39 0 0 1-.24.077h-.826a.398.398 0 0 1-.292-.12.398.398 0 0 1-.12-.293V6.388c0-.115.04-.212.12-.293.08-.08.178-.12.292-.12h.825c.127 0 .23.046.31.138h.447l.67-.67a1.953 1.953 0 0 1 1.375-.567h.55c.32-.001.63.08.928.24.264-.16.544-.241.842-.241h.808c.264 0 .51.054.74.163.228.11.429.261.6.456l.55.619h.396a.392.392 0 0 1 .31-.138h.825zm-9.763 4.4c.08 0 .146-.026.198-.077A.268.268 0 0 0 4.1 10.1a.268.268 0 0 0-.077-.198.268.268 0 0 0-.198-.077.268.268 0 0 0-.198.077.268.268 0 0 0-.077.198c0 .08.026.146.077.198a.268.268 0 0 0 .198.077zm7.279-.516a.554.554 0 0 1-.18.413.699.699 0 0 1-.43.189c-.138.011-.224-.006-.258-.052 0 .08-.034.178-.103.293a.8.8 0 0 1-.756.378.647.647 0 0 1-.327.404.637.637 0 0 1-.55.043c-.149.149-.35.223-.602.223a1.34 1.34 0 0 1-.601-.155 1.84 1.84 0 0 1-.481-.378L5.423 9.963a.526.526 0 0 0-.36-.138H4.65V6.938h.464a.514.514 0 0 0 .378-.155l.756-.756c.218-.218.482-.327.791-.327h.55c.092 0 .19.011.292.034l-.756.877c-.195.23-.295.498-.3.808-.007.31.094.584.3.825a1.428 1.428 0 0 0 1.46.464c.264-.069.488-.212.671-.43l.447-.515 1.255 1.65a.648.648 0 0 1 .146.446zm1.246-.034V6.938h-.67l-.79-.911a.93.93 0 0 0-.723-.327H9.36a.766.766 0 0 0-.601.275L7.76 7.144a.46.46 0 0 0-.112.283.352.352 0 0 0 .06.221l.052.063a.53.53 0 0 0 .438.223.545.545 0 0 0 .438-.206l.929-1.065a.4.4 0 0 1 .275-.138.373.373 0 0 1 .292.086c.08.069.129.149.146.24a.436.436 0 0 1-.026.258l1.34 1.788c.23.263.345.573.345.928h.412zm.627.473a.268.268 0 0 0 .198.077c.08 0 .146-.026.198-.077a.268.268 0 0 0 .077-.198.268.268 0 0 0-.077-.198.268.268 0 0 0-.198-.077.268.268 0 0 0-.198.077.268.268 0 0 0-.077.198c0 .08.026.146.077.198z"/></svg>