<svg width="22" height="22" viewBox="0 0 22 22" xmlns="http://www.w3.org/2000/svg"><path fill-rule="evenodd" clip-rule="evenodd" d="M16.496 1.375C14.81.458 12.975 0 10.99 0 8.511 0 6.33.655 4.446 1.964 2.66 3.208 1.396 4.821.652 6.801-.092 8.782-.199 10.755.33 12.72c.562 2.128 1.818 3.928 3.768 5.402V22l3.72-2.063c2.314.622 4.578.573 6.793-.147 2.182-.72 3.934-1.931 5.257-3.634C21.289 14.388 22 12.391 22 10.166a9.27 9.27 0 0 0-1.488-5.083c-.991-1.555-2.33-2.791-4.016-3.708zm-7.19 9.33l2.826 2.947 6.05-6.286-5.505 2.996-2.826-2.947-6 6.335 5.454-3.045z"/></svg>