<svg xmlns="http://www.w3.org/2000/svg" width="14" height="13" viewBox="0 0 14 13"><path d="M9.422 8.586a.159.159 0 0 0-.047.117v2.672h-8.25v-8.25h5.672a.159.159 0 0 0 .117-.047l.75-.75c.063-.062.078-.133.047-.21C7.68 2.038 7.625 2 7.547 2H1.125c-.313 0-.578.11-.797.328A1.085 1.085 0 0 0 0 3.125v8.25c0 .312.11.578.328.797.219.219.484.328.797.328h8.25c.312 0 .578-.11.797-.328.219-.219.328-.485.328-.797V7.977c0-.094-.04-.157-.117-.188-.078-.031-.149-.016-.211.047l-.75.75zm3.68-4.734c.265-.266.398-.59.398-.973s-.133-.707-.398-.973L12.094.898A1.323 1.323 0 0 0 11.12.5c-.383 0-.707.133-.973.398L3.984 7.063 3.75 9.172a.942.942 0 0 0 .281.797.942.942 0 0 0 .797.281l2.11-.234 6.164-6.164zm-2.32.726l-4.36 4.36-1.524.164.164-1.524 4.36-4.36 1.36 1.36zm1.523-1.875c.047.047.07.106.07.176 0 .07-.023.129-.07.176l-.727.726-1.36-1.36.727-.726a.238.238 0 0 1 .176-.07c.07 0 .129.023.176.07l1.008 1.008z"/></svg>