<svg width="120" height="70" viewBox="0 0 120 70" fill="none" xmlns="http://www.w3.org/2000/svg">
<path d="M68.1094 21.0137H51.8867V50.4849H68.1094V21.0137Z" fill="#FF5F00"/>
<path d="M52.9178 35.7542C52.9178 29.7662 55.6988 24.4551 59.9734 21.0186C56.8319 18.5192 52.8663 17.0092 48.5403 17.0092C38.2916 17.0092 30 25.3924 30 35.7542C30 46.116 38.2916 54.4991 48.5403 54.4991C52.8663 54.4991 56.8319 52.9891 59.9734 50.4898C55.6988 47.1053 52.9178 41.7421 52.9178 35.7542Z" fill="#EC001B"/>
<path d="M89.9968 35.7449C89.9968 46.1067 81.7052 54.4899 71.4566 54.4899C67.1305 54.4899 63.165 52.9799 60.0234 50.4806C64.3495 47.044 67.079 41.7329 67.079 35.7449C67.079 29.757 64.298 24.4459 60.0234 21.0093C63.165 18.51 67.1305 17 71.4566 17C81.7052 17 89.9968 25.4352 89.9968 35.7449Z" fill="#F89E1B" />
</svg>
