<svg xmlns="http://www.w3.org/2000/svg" width="15" height="10" viewBox="0 0 15 10"><path d="M6 7h3v-.75H8v-3.5h-.89L5.952 3.82l.602.625c.218-.192.362-.34.43-.445H7v2.25H6V7zm3.836-3.11c.11.376.164.745.164 1.11a4.207 4.207 0 0 1-.629 2.156c-.2.323-.465.586-.793.79A2.009 2.009 0 0 1 7.5 8.25c-.39 0-.75-.102-1.078-.305a2.417 2.417 0 0 1-.793-.789A4.207 4.207 0 0 1 5 5a4.207 4.207 0 0 1 .629-2.156c.2-.323.465-.586.793-.79A2.009 2.009 0 0 1 7.5 1.75c.39 0 .75.102 1.078.305.328.203.593.466.793.789.2.323.356.672.465 1.047zM14 7V3a1.927 1.927 0 0 1-1.414-.586A1.927 1.927 0 0 1 12 1H3c0 .552-.195 1.023-.586 1.414C2.024 2.804 1.552 3 1 3v4c.552 0 1.023.195 1.414.586.39.39.586.862.586 1.414h9c0-.552.195-1.023.586-1.414.39-.39.862-.586 1.414-.586zm1-6.5v9a.48.48 0 0 1-.148.352.48.48 0 0 1-.352.148H.5a.48.48 0 0 1-.352-.148A.48.48 0 0 1 0 9.5v-9A.48.48 0 0 1 .148.148.48.48 0 0 1 .5 0h14a.48.48 0 0 1 .352.148A.48.48 0 0 1 15 .5z"/></svg>