<svg width="22" height="23" viewBox="0 0 22 23" fill="none" xmlns="http://www.w3.org/2000/svg">
<path fill-rule="evenodd" clip-rule="evenodd" d="M22 11.1431C22 9.65348 21.7095 8.22938 21.1283 6.87075C20.5472 5.51211 19.7656 4.34173 18.7835 3.35958C17.8013 2.37744 16.631 1.59582 15.2723 1.01472C13.9137 0.433614 12.4896 0.143066 11 0.143066C9.51041 0.143066 8.08632 0.433614 6.72768 1.01472C5.36904 1.59582 4.19867 2.37744 3.21652 3.35958C2.23437 4.34173 1.45276 5.51211 0.871652 6.87075C0.290548 8.22938 0 9.65348 0 11.1431C0 12.6327 0.290548 14.0568 0.871652 15.4154C1.45276 16.774 2.23437 17.9444 3.21652 18.9265C4.19867 19.9087 5.36904 20.6903 6.72768 21.2714C8.08632 21.8525 9.51041 22.1431 11 22.1431C12.4896 22.1431 13.9137 21.8525 15.2723 21.2714C16.631 20.6903 17.8013 19.9087 18.7835 18.9265C19.7656 17.9444 20.5472 16.774 21.1283 15.4154C21.7095 14.0568 22 12.6327 22 11.1431ZM16.4018 7.68101L14.5971 16.1888C14.458 16.7945 14.1265 16.95 13.6027 16.6553L10.8527 14.6297L9.52678 15.9065C9.34672 16.0865 9.16258 16.1765 8.97433 16.1765L9.17076 13.3774L14.2656 8.77365C14.3557 8.6918 14.372 8.63042 14.3147 8.58949C14.2247 8.52402 14.0938 8.54857 13.9219 8.66316L7.62388 12.6286L4.91071 11.7815C4.71428 11.7242 4.58333 11.6444 4.51786 11.5421C4.45238 11.4398 4.46261 11.3313 4.54855 11.2167C4.63449 11.1021 4.79613 10.9998 5.03348 10.9098L15.6406 6.82164C15.9025 6.72342 16.1133 6.75207 16.2729 6.90758C16.4325 7.06308 16.4754 7.32089 16.4018 7.68101Z" fill="#20A4E2"/>
</svg>
