<svg width="15" height="15" viewBox="0 0 15 15" fill="none" xmlns="http://www.w3.org/2000/svg">
<path d="M14.9286 11.8615C14.9286 12.0523 14.8932 12.3015 14.8225 12.609C14.7519 12.9164 14.6776 13.1585 14.5999 13.3352C14.4515 13.6887 14.0203 14.0633 13.3064 14.4591C12.6419 14.8196 11.9846 14.9999 11.3343 14.9999C11.1434 14.9999 10.9561 14.9875 10.7723 14.9628C10.5885 14.938 10.3853 14.8938 10.1627 14.8302L9.82296 14.7291L9.32977 14.554L8.55636 14.2683C7.86365 14.0209 7.24517 13.7275 6.70089 13.3883C5.80319 12.8298 4.87017 12.0665 3.90179 11.0981C2.9334 10.1297 2.17002 9.19666 1.61161 8.29897C1.34018 7.86355 1.09816 7.38064 0.885536 6.85022L0.323382 5.33552L0.270792 5.1769C0.241529 5.08402 0.207813 4.97079 0.169643 4.83719C0.106026 4.61454 0.0618491 4.41132 0.0371094 4.22754C0.0123697 4.04376 0 3.85645 0 3.6656C0 3.0153 0.180244 2.35794 0.540737 1.6935C0.936572 0.979582 1.3112 0.54841 1.66462 0.399972C1.84133 0.322219 2.08342 0.248001 2.3909 0.177316C2.69838 0.106631 2.94754 0.0712891 3.13839 0.0712891C3.23735 0.0712891 3.31157 0.0818916 3.36105 0.103097C3.48828 0.145508 3.67559 0.414107 3.92299 0.908901L4.09348 1.21171L4.49554 1.94561L4.61216 2.15472C4.72526 2.35617 4.83482 2.54525 4.94085 2.72196L5.1264 2.98703C5.22889 3.13546 5.30487 3.26093 5.35435 3.36342C5.40383 3.46591 5.42857 3.56664 5.42857 3.6656C5.42857 3.80697 5.32785 3.98368 5.1264 4.19573C4.92494 4.40779 4.70582 4.60217 4.46903 4.77888C4.23223 4.95559 4.01311 5.1429 3.81166 5.34082C3.61021 5.53874 3.50949 5.70131 3.50949 5.82854C3.50949 5.89216 3.52716 5.97168 3.5625 6.0671L3.62612 6.22732C3.63554 6.24892 3.64438 6.26797 3.65262 6.28446L3.70829 6.38518L3.92299 6.74037C4.4602 7.70876 5.07515 8.53929 5.76786 9.232C6.37398 9.83813 7.08562 10.3847 7.9028 10.8718L8.34219 11.1259L8.67167 11.324C8.68845 11.3333 8.70303 11.3411 8.7154 11.3472L8.84499 11.4038C8.87169 11.4144 8.90095 11.4256 8.93276 11.4374C9.02818 11.4727 9.1077 11.4904 9.17132 11.4904C9.29855 11.4904 9.46112 11.3896 9.65904 11.1882C9.85696 10.9867 10.0443 10.7676 10.221 10.5308C10.3977 10.294 10.5921 10.0749 10.8041 9.87347C11.0162 9.67201 11.1929 9.57129 11.3343 9.57129C11.4332 9.57129 11.5339 9.59603 11.6364 9.64551C11.7133 9.68262 11.8031 9.73464 11.9058 9.80157L12.2779 10.059L12.6478 10.2758L13.2787 10.628L14.0036 11.0268C14.035 11.0446 14.0641 11.0613 14.091 11.0769C14.5858 11.3243 14.8544 11.5116 14.8968 11.6388C14.918 11.6883 14.9286 11.7625 14.9286 11.8615Z" fill="#E1E1E1"/>
</svg>
