<svg width="19" height="20" viewBox="0 0 19 20" fill="none" xmlns="http://www.w3.org/2000/svg">
<path fill-rule="evenodd" clip-rule="evenodd" d="M17.476 18.1904C18.3968 17.2696 18.8571 16.1586 18.8571 14.8572C18.8571 13.7932 18.5298 12.8356 17.875 11.9844C18.006 11.3542 18.0714 10.7404 18.0714 10.1429C18.0714 8.97253 17.8443 7.85331 17.3901 6.78523C16.9358 5.71714 16.322 4.79639 15.5485 4.02295C14.7751 3.24951 13.8544 2.63567 12.7863 2.18143C11.7182 1.72719 10.599 1.50007 9.42857 1.50007C8.8311 1.50007 8.21727 1.56555 7.58705 1.6965C6.73586 1.04173 5.77828 0.714355 4.71429 0.714355C3.41294 0.714355 2.3019 1.17473 1.38114 2.09549C0.460375 3.01626 0 4.1273 0 5.42864C0 6.49263 0.327378 7.45021 0.982143 8.30141C0.85119 8.93162 0.785714 9.54545 0.785714 10.1429C0.785714 11.3133 1.01283 12.4325 1.46708 13.5006C1.92132 14.5687 2.53515 15.4895 3.30859 16.2629C4.08204 17.0363 5.00278 17.6502 6.07087 18.1044C7.13896 18.5587 8.25818 18.7858 9.42857 18.7858C10.026 18.7858 10.6399 18.7203 11.2701 18.5894C12.1213 19.2441 13.0789 19.5715 14.1429 19.5715C15.4442 19.5715 16.5552 19.1111 17.476 18.1904ZM14.1613 11.0698C14.3209 11.4095 14.4007 11.7839 14.4007 12.1932C14.4007 12.7906 14.2656 13.3288 13.9955 13.8075C13.7254 14.2863 13.3633 14.669 12.909 14.9554C12.4548 15.2419 11.9535 15.4608 11.4051 15.6122C10.8568 15.7636 10.2839 15.8394 9.68638 15.8394C8.30319 15.8394 7.11236 15.5713 6.11384 15.0352C5.11532 14.4991 4.61607 13.8546 4.61607 13.1016C4.61607 12.7333 4.72042 12.4264 4.92913 12.1809C5.13784 11.9353 5.4468 11.8126 5.85603 11.8126C6.09338 11.8126 6.31436 11.878 6.51897 12.009C6.72359 12.14 6.91183 12.2975 7.0837 12.4817C7.25558 12.6658 7.44178 12.85 7.6423 13.0341C7.84282 13.2183 8.10882 13.3758 8.44029 13.5068C8.77176 13.6377 9.1462 13.7032 9.56362 13.7032C10.0956 13.7032 10.5253 13.5988 10.8527 13.3901C11.1801 13.1814 11.3438 12.9175 11.3438 12.5983C11.3438 12.2709 11.2128 12.0254 10.9509 11.8617C10.7708 11.7471 10.3125 11.5998 9.57589 11.4197L7.49719 10.9068C7.12659 10.8092 6.80052 10.6999 6.51897 10.5788C6.16704 10.4273 5.83966 10.2289 5.53683 9.98333C5.234 9.73779 5.00484 9.42883 4.84933 9.05643C4.69382 8.68403 4.61607 8.24821 4.61607 7.74895C4.61607 7.15148 4.75316 6.62563 5.02734 6.17139C5.30153 5.71714 5.66573 5.36112 6.11998 5.10331C6.57422 4.84549 7.06324 4.65316 7.58705 4.5263C8.11087 4.39944 8.65104 4.33601 9.20759 4.33601C9.99331 4.33601 10.7381 4.43013 11.442 4.61837C12.1458 4.80662 12.7269 5.08284 13.1853 5.44706C13.6436 5.81127 13.8728 6.21845 13.8728 6.6686C13.8728 7.0369 13.7561 7.352 13.5229 7.61391C13.2896 7.87582 12.9807 8.00677 12.596 8.00677C12.3832 8.00677 12.1868 7.95766 12.0067 7.85944C11.8266 7.76123 11.6629 7.64256 11.5156 7.50342C11.3683 7.36428 11.2128 7.22719 11.0491 7.09215C10.8854 6.9571 10.6644 6.84047 10.3862 6.74226C10.1079 6.64404 9.79278 6.59494 9.44085 6.59494C8.26227 6.59494 7.67299 6.91004 7.67299 7.54025C7.67299 7.67939 7.70368 7.80215 7.76507 7.90855C7.82645 8.01495 7.89397 8.10089 7.96763 8.16636C8.0413 8.23184 8.16406 8.29732 8.33594 8.36279C8.42188 8.39553 8.50065 8.42367 8.57227 8.4472L8.76562 8.50398C8.81146 8.51543 8.86777 8.52918 8.93455 8.54523L10.8753 8.99582C11.16 9.06487 11.4205 9.13623 11.6568 9.20989C11.9719 9.30811 12.3095 9.44724 12.6696 9.6273C13.0298 9.80736 13.3285 10.0079 13.5658 10.2289C13.8032 10.4498 14.0017 10.7302 14.1613 11.0698Z" fill="#00AEF3"/>
</svg>
