<svg width="19" height="20" viewBox="0 0 19 20" fill="none" xmlns="http://www.w3.org/2000/svg">
<path d="M15.3214 0.714355C16.2954 0.714355 17.1282 1.06015 17.8198 1.75174C18.5113 2.44334 18.8571 3.27611 18.8571 4.25007V16.0358C18.8571 17.0097 18.5113 17.8425 17.8198 18.5341C17.1282 19.2257 16.2954 19.5715 15.3214 19.5715H13.0134V12.2668H15.4565L15.8248 9.4186H13.0134V7.60163C13.0134 7.1433 13.1096 6.79955 13.3019 6.57038C13.4942 6.34121 13.8687 6.22663 14.4252 6.22663L15.923 6.21436V3.67306C15.4074 3.5994 14.6789 3.56257 13.7377 3.56257C12.6246 3.56257 11.7346 3.88995 11.0675 4.54471C10.4005 5.19948 10.067 6.12432 10.067 7.31927V9.4186H7.61161V12.2668H10.067V19.5715H3.53571C2.56175 19.5715 1.72898 19.2257 1.03739 18.5341C0.345793 17.8425 0 17.0097 0 16.0358V4.25007C0 3.27611 0.345793 2.44334 1.03739 1.75174C1.72898 1.06015 2.56175 0.714355 3.53571 0.714355H15.3214Z" fill="#3B5998"/>
</svg>
