<svg width="17" height="17" viewBox="0 0 17 17" fill="none" xmlns="http://www.w3.org/2000/svg">
<path fill-rule="evenodd" clip-rule="evenodd" d="M8.5 16C12.6421 16 16 12.6421 16 8.5C16 4.35786 12.6421 1 8.5 1C4.35786 1 1 4.35786 1 8.5C1 12.6421 4.35786 16 8.5 16Z" fill="white" stroke="#049FDB"/>
<path fill-rule="evenodd" clip-rule="evenodd" d="M13.5875 5.97502C13.7021 5.97502 13.7995 6.01512 13.8797 6.09533C13.9599 6.17554 14 6.27294 14 6.38752V10.5125C14 10.6271 13.9599 10.7245 13.8797 10.8047C13.7995 10.8849 13.7021 10.925 13.5875 10.925H12.7625C12.6708 10.925 12.5906 10.8992 12.5219 10.8477C12.4531 10.7961 12.4016 10.7302 12.3672 10.65H11.6797C11.462 10.9709 11.1526 11.1714 10.7516 11.2516C10.5224 11.5495 10.2359 11.75 9.89219 11.8531C9.73177 12.025 9.54844 12.1568 9.34219 12.2485C9.13594 12.3401 8.91823 12.386 8.68906 12.386C8.44844 12.512 8.18203 12.575 7.88984 12.575C7.59766 12.575 7.30833 12.5063 7.02187 12.3688C6.73542 12.2313 6.4776 12.0479 6.24844 11.8188L4.94219 10.65H4.63281C4.59844 10.7302 4.54688 10.7961 4.47812 10.8477C4.40937 10.8992 4.32917 10.925 4.2375 10.925H3.4125C3.29792 10.925 3.20052 10.8849 3.12031 10.8047C3.0401 10.7245 3 10.6271 3 10.5125V6.38752C3 6.27294 3.0401 6.17554 3.12031 6.09533C3.20052 6.01512 3.29792 5.97502 3.4125 5.97502H4.2375C4.36354 5.97502 4.46667 6.02085 4.54688 6.11252H4.99375L5.66406 5.44221C5.8474 5.25887 6.05938 5.11851 6.3 5.02111C6.54062 4.92372 6.78698 4.87502 7.03906 4.87502H7.58906C7.9099 4.87502 8.21927 4.95523 8.51719 5.11564C8.78073 4.95523 9.06146 4.87502 9.35938 4.87502H10.1672C10.4307 4.87502 10.6771 4.92945 10.9062 5.0383C11.1354 5.14715 11.3359 5.29898 11.5078 5.49377L12.0578 6.11252H12.4531C12.5333 6.02085 12.6365 5.97502 12.7625 5.97502H13.5875ZM3.825 10.375C3.90521 10.375 3.97109 10.3492 4.02266 10.2977C4.07422 10.2461 4.1 10.1802 4.1 10.1C4.1 10.0198 4.07422 9.95393 4.02266 9.90236C3.97109 9.8508 3.90521 9.82502 3.825 9.82502C3.74479 9.82502 3.67891 9.8508 3.62734 9.90236C3.57578 9.95393 3.55 10.0198 3.55 10.1C3.55 10.1802 3.57578 10.2461 3.62734 10.2977C3.67891 10.3492 3.74479 10.375 3.825 10.375ZM11.1039 9.85939C11.0982 10.0313 11.038 10.1688 10.9234 10.2719C10.7974 10.3865 10.6542 10.4495 10.4938 10.461C10.3562 10.4724 10.2703 10.4552 10.2359 10.4094C10.2359 10.4896 10.2016 10.587 10.1328 10.7016C10.0641 10.8162 9.9638 10.9107 9.83203 10.9852C9.70026 11.0597 9.54844 11.0912 9.37656 11.0797C9.33073 11.2516 9.22188 11.3862 9.05 11.4836C8.87813 11.581 8.69479 11.5953 8.5 11.5266C8.35104 11.6755 8.15052 11.75 7.89844 11.75C7.70365 11.75 7.50312 11.6985 7.29688 11.5953C7.125 11.5037 6.96458 11.3776 6.81563 11.2172L5.42344 9.96252C5.32031 9.87085 5.2 9.82502 5.0625 9.82502H4.65V6.93752H5.11406C5.26302 6.93752 5.38906 6.88596 5.49219 6.78283L6.24844 6.02658C6.46615 5.80887 6.72969 5.70002 7.03906 5.70002H7.58906C7.68073 5.70002 7.77812 5.71148 7.88125 5.73439L7.125 6.61096C6.93021 6.84012 6.82995 7.10939 6.82422 7.41877C6.81849 7.72814 6.91875 8.00314 7.125 8.24377C7.30833 8.46148 7.53177 8.61044 7.79531 8.69064C8.05885 8.77085 8.3224 8.77658 8.58594 8.70783C8.84948 8.63908 9.07292 8.49585 9.25625 8.27814L9.70312 7.76252L10.9578 9.41252C11.0609 9.53856 11.1096 9.68752 11.1039 9.85939ZM12.35 9.82502V6.93752H11.6797L10.8891 6.02658C10.6943 5.80887 10.4536 5.70002 10.1672 5.70002H9.35938C9.11875 5.70002 8.91823 5.79169 8.75781 5.97502L7.76094 7.14377C7.69219 7.22398 7.65495 7.31851 7.64922 7.42736C7.64492 7.509 7.66479 7.58259 7.70884 7.64811L7.76094 7.71096C7.87552 7.85992 8.02161 7.93439 8.19922 7.93439C8.37682 7.93439 8.52292 7.86564 8.6375 7.72814L9.56563 6.66252C9.63438 6.58231 9.72604 6.53648 9.84062 6.52502C9.95521 6.51356 10.0526 6.54221 10.1328 6.61096C10.213 6.67971 10.2617 6.75991 10.2789 6.85158C10.2961 6.94325 10.2875 7.02919 10.2531 7.10939L11.5938 8.89689C11.8229 9.16044 11.9375 9.46981 11.9375 9.82502H12.35ZM12.9773 10.2977C13.0289 10.3492 13.0948 10.375 13.175 10.375C13.2552 10.375 13.3211 10.3492 13.3727 10.2977C13.4242 10.2461 13.45 10.1802 13.45 10.1C13.45 10.0198 13.4242 9.95393 13.3727 9.90236C13.3211 9.8508 13.2552 9.82502 13.175 9.82502C13.0948 9.82502 13.0289 9.8508 12.9773 9.90236C12.9258 9.95393 12.9 10.0198 12.9 10.1C12.9 10.1802 12.9258 10.2461 12.9773 10.2977Z" fill="#049FDB"/>
</svg>
