<svg xmlns="http://www.w3.org/2000/svg" width="12" height="12" viewBox="0 0 12 12">
    <path fill="#979AAD" fill-rule="nonzero" d="M8.29 5.594A.47.47 0 0 1 8.5 6a.47.47 0 0 1-.21.406l-3.5 2.5a.456.456 0 0 1-.517.04A.458.458 0 0 1 4 8.5v-5c0-.208.091-.357.273-.445a.456.456 0 0 1 .516.039l3.5 2.5zM10 9.75v-7.5a.243.243 0 0 0-.07-.18.243.243 0 0 0-.18-.07h-7.5a.243.243 0 0 0-.18.07.243.243 0 0 0-.07.18v7.5c0 .073.023.133.07.18.047.047.107.07.18.07h7.5a.243.243 0 0 0 .18-.07.243.243 0 0 0 .07-.18zm2-7.5v7.5c0 .62-.22 1.15-.66 1.59-.44.44-.97.66-1.59.66h-7.5c-.62 0-1.15-.22-1.59-.66C.22 10.9 0 10.37 0 9.75v-7.5C0 1.63.22 1.1.66.66 1.1.22 1.63 0 2.25 0h7.5c.62 0 1.15.22 1.59.66.44.44.66.97.66 1.59z"/>
</svg>
