<svg width="17" height="17" viewBox="0 0 17 17" fill="none" xmlns="http://www.w3.org/2000/svg">
<path fill-rule="evenodd" clip-rule="evenodd" d="M8.5 16C12.6421 16 16 12.6421 16 8.5C16 4.35786 12.6421 1 8.5 1C4.35786 1 1 4.35786 1 8.5C1 12.6421 4.35786 16 8.5 16Z" fill="white" stroke="#FB4747"/>
<path d="M8.5 12.5H9.5C9.5 13.0523 9.05228 13.5 8.5 13.5V12.5ZM8.5 12.5V13.5C7.94772 13.5 7.5 13.0523 7.5 12.5H8.5ZM8.5 11.5V12.5H7.5V11.5H8.5ZM8.5 11.5H7.5C7.5 10.9477 7.94772 10.5 8.5 10.5V11.5ZM8.5 11.5V10.5C9.05228 10.5 9.5 10.9477 9.5 11.5H8.5ZM8.5 12.5V11.5H9.5V12.5H8.5ZM8.5 9.5H9.5C9.5 10.0523 9.05228 10.5 8.5 10.5V9.5ZM8.5 9.5V10.5C7.94772 10.5 7.5 10.0523 7.5 9.5H8.5ZM8.5 4.5V9.5H7.5V4.5H8.5ZM8.5 4.5H7.5C7.5 3.94772 7.94772 3.5 8.5 3.5V4.5ZM8.5 4.5V3.5C9.05228 3.5 9.5 3.94772 9.5 4.5H8.5ZM8.5 9.5V4.5H9.5V9.5H8.5Z" fill="#FB4747"/>
</svg>
