<svg width="16" height="16" viewBox="0 0 16 16" fill="none" xmlns="http://www.w3.org/2000/svg">
<path d="M8 1L8.33814 0.631678C8.1469 0.456107 7.8531 0.456107 7.66186 0.631678L8 1ZM15 7.42641V7.92641C15.2061 7.92641 15.3911 7.79992 15.4659 7.60784C15.5407 7.41577 15.49 7.19748 15.3381 7.05808L15 7.42641ZM1 7.42641L0.661859 7.05808C0.51002 7.19748 0.459284 7.41577 0.534081 7.60784C0.608878 7.79992 0.793877 7.92641 1 7.92641V7.42641ZM3.92072 7.42641H4.42072C4.42072 7.15026 4.19687 6.92641 3.92072 6.92641V7.42641ZM3.92072 15H3.42072C3.42072 15.2761 3.64458 15.5 3.92072 15.5V15ZM12.0793 15V15.5C12.3554 15.5 12.5793 15.2761 12.5793 15H12.0793ZM12.0793 7.42641V6.92641C11.8031 6.92641 11.5793 7.15026 11.5793 7.42641H12.0793ZM7.66186 1.36832L14.6619 7.79473L15.3381 7.05808L8.33814 0.631678L7.66186 1.36832ZM1.33814 7.79473L8.33814 1.36832L7.66186 0.631678L0.661859 7.05808L1.33814 7.79473ZM3.92072 6.92641H1V7.92641H3.92072V6.92641ZM4.42072 15V7.42641H3.42072V15H4.42072ZM12.0793 14.5H3.92072V15.5H12.0793V14.5ZM11.5793 7.42641V15H12.5793V7.42641H11.5793ZM15 6.92641H12.0793V7.92641H15V6.92641Z" fill="#FBC200"/>
</svg>
