<svg width="22" height="22" viewBox="0 0 22 22" fill="none" xmlns="http://www.w3.org/2000/svg">
<path fill-rule="evenodd" clip-rule="evenodd" d="M16.4957 1.375C14.8096 0.458333 12.9749 0 10.9913 0C8.51187 0 6.32997 0.654762 4.4456 1.96429C2.6604 3.20833 1.39589 4.82068 0.652059 6.80134C-0.0917712 8.78199 -0.199214 10.7545 0.329733 12.7188C0.891738 14.8467 2.14799 16.6473 4.09847 18.1205V22L7.81763 19.9375C10.1318 20.5595 12.3963 20.5104 14.6113 19.7902C16.7932 19.0699 18.5453 17.8586 19.8677 16.1562C21.2892 14.3884 22 12.3914 22 10.1652C22 8.33185 21.5041 6.63765 20.5123 5.08259C19.5206 3.52753 18.1817 2.29167 16.4957 1.375ZM9.30529 10.7054L12.1318 13.6518L18.1817 7.36607L12.6773 10.3616L9.85077 7.41518L3.85053 13.75L9.30529 10.7054Z" fill="#1772DB"/>
</svg>
