<svg width="14" height="11" viewBox="0 0 14 11" fill="none" xmlns="http://www.w3.org/2000/svg">
<path fill-rule="evenodd" clip-rule="evenodd" d="M13.6172 2.42969C13.8724 2.05469 14 1.66146 14 1.25C14 0.906248 13.8763 0.61198 13.6289 0.367188C13.3815 0.122395 13.0885 0 12.75 0H1.25C0.848956 0 0.540366 0.135415 0.324219 0.40625C0.108072 0.677085 0 1.01562 0 1.42188C0 1.75 0.143228 2.10547 0.429688 2.48828C0.716147 2.8711 1.02083 3.17187 1.34375 3.39062L4.99219 5.92969L5.4458 6.25537C5.56201 6.33838 5.66211 6.4082 5.74609 6.46484L5.86589 6.5434C5.95095 6.5978 6.04644 6.65625 6.15234 6.71875C6.3112 6.8125 6.46094 6.88281 6.60156 6.92969C6.74219 6.97656 6.8724 7 6.99219 7L7.13108 6.99219C7.21557 6.98177 7.30469 6.96094 7.39844 6.92969C7.53906 6.88281 7.6888 6.8125 7.84766 6.71875C8.00651 6.625 8.14193 6.54036 8.25391 6.46484L8.34326 6.40381L8.96953 5.95672L12.6641 3.39062C13.0443 3.125 13.362 2.80469 13.6172 2.42969ZM14 9.75V3.54688C13.776 3.79688 13.5156 4.02344 13.2188 4.22656C11.8521 5.15157 10.7487 5.91156 9.90875 6.50656L8.85422 7.26359L8.60547 7.43359C8.42057 7.55599 8.17448 7.68099 7.86719 7.80859C7.55989 7.9362 7.27344 8 7.00781 8L6.83031 7.99234C6.61115 7.97193 6.37865 7.91068 6.13281 7.80859C5.82552 7.68099 5.57943 7.55599 5.39453 7.43359C5.28359 7.36016 5.1525 7.26938 5.00125 7.16125L4.54166 6.82691C4.04169 6.46413 3.29423 5.94107 2.29926 5.25773L0.789062 4.22656C0.492186 4.02865 0.229168 3.80208 0 3.54688V9.75C0 10.0938 0.122395 10.388 0.367188 10.6328C0.61198 10.8776 0.906248 11 1.25 11H12.75C13.0938 11 13.388 10.8776 13.6328 10.6328C13.8776 10.388 14 10.0938 14 9.75Z" fill="#E1E1E1"/>
</svg>
