<svg width="17" height="17" viewBox="0 0 17 17" fill="none" xmlns="http://www.w3.org/2000/svg">
<path fill-rule="evenodd" clip-rule="evenodd" d="M8.5 16C12.6421 16 16 12.6421 16 8.5C16 4.35786 12.6421 1 8.5 1C4.35786 1 1 4.35786 1 8.5C1 12.6421 4.35786 16 8.5 16Z" fill="white" stroke="#FF5D00"/>
<path d="M4 10.3182C4 10.4205 4.01894 10.554 4.05682 10.7188C4.0947 10.8835 4.13447 11.0133 4.17614 11.108C4.25568 11.2973 4.48674 11.4981 4.86932 11.7102C5.22538 11.9034 5.57765 12 5.92614 12C6.02841 12 6.12879 11.9934 6.22727 11.9801C6.32576 11.9669 6.43466 11.9432 6.55398 11.9091L6.73602 11.8549L7.00032 11.761L7.41477 11.608C7.78599 11.4754 8.11742 11.3182 8.40909 11.1364C8.89015 10.8371 9.39015 10.428 9.90909 9.90909C10.428 9.39015 10.8371 8.89015 11.1364 8.40909C11.2818 8.17576 11.4115 7.91697 11.5255 7.63273L11.8267 6.82102L11.8549 6.73602C11.8706 6.68625 11.8886 6.62557 11.9091 6.55398C11.9432 6.43466 11.9669 6.32576 11.9801 6.22727C11.9934 6.12879 12 6.02841 12 5.92614C12 5.57765 11.9034 5.22538 11.7102 4.86932C11.4981 4.48674 11.2973 4.25568 11.108 4.17614C11.0133 4.13447 10.8835 4.0947 10.7188 4.05682C10.554 4.01894 10.4205 4 10.3182 4C10.2652 4 10.2254 4.00568 10.1989 4.01705C10.1307 4.03977 10.0303 4.18371 9.89773 4.44886L9.80636 4.61114L9.59091 5.00442L9.52841 5.11648C9.4678 5.22443 9.40909 5.32576 9.35227 5.42045L9.25284 5.5625C9.19792 5.64205 9.1572 5.70928 9.13068 5.7642C9.10417 5.81913 9.09091 5.87311 9.09091 5.92614C9.09091 6.00189 9.14489 6.09659 9.25284 6.21023C9.3608 6.32386 9.47822 6.42803 9.60511 6.52273C9.73201 6.61742 9.84943 6.7178 9.95739 6.82386C10.0653 6.92992 10.1193 7.01705 10.1193 7.08523C10.1193 7.11932 10.1098 7.16193 10.0909 7.21307L10.0568 7.29893C10.0518 7.3105 10.047 7.32071 10.0426 7.32955L10.0128 7.38352L9.89773 7.57386C9.60985 8.09281 9.2803 8.53788 8.90909 8.90909C8.58428 9.2339 8.20292 9.52681 7.765 9.78782L7.52955 9.92398L7.35298 10.0302C7.34399 10.0352 7.33617 10.0393 7.32955 10.0426L7.2601 10.0729C7.24579 10.0786 7.23011 10.0846 7.21307 10.0909C7.16193 10.1098 7.11932 10.1193 7.08523 10.1193C7.01705 10.1193 6.92992 10.0653 6.82386 9.95739C6.7178 9.84943 6.61742 9.73201 6.52273 9.60511C6.42803 9.47822 6.32386 9.3608 6.21023 9.25284C6.09659 9.14489 6.00189 9.09091 5.92614 9.09091C5.87311 9.09091 5.81913 9.10417 5.7642 9.13068C5.72301 9.15057 5.67489 9.17844 5.61985 9.21431L5.42045 9.35227L5.22222 9.46843L4.88415 9.6572L4.49568 9.87091C4.47886 9.88045 4.46326 9.88939 4.44886 9.89773C4.18371 10.0303 4.03977 10.1307 4.01705 10.1989C4.00568 10.2254 4 10.2652 4 10.3182Z" fill="#FF5D00"/>
</svg>
