<svg xmlns="http://www.w3.org/2000/svg" width="14" height="10" viewBox="0 0 14 10">
    <path fill="#979AAD" fill-rule="nonzero" d="M13.672 8.75c.091 0 .168.03.232.091.064.06.096.135.096.222v.624c0 .087-.032.161-.096.222a.325.325 0 0 1-.232.091H.328a.325.325 0 0 1-.232-.091A.294.294 0 0 1 0 9.687V.313C0 .226.032.151.096.09A.325.325 0 0 1 .328 0h.656c.092 0 .169.03.233.091.064.06.095.135.095.222V8.75h12.36zM3.937 7.187c0 .087-.031.161-.095.222a.325.325 0 0 1-.233.091h-.656a.325.325 0 0 1-.232-.091.294.294 0 0 1-.096-.221V5.313c0-.087.032-.161.096-.222A.325.325 0 0 1 2.953 5h.656c.092 0 .169.03.233.091.064.06.095.135.095.221v1.875zm2.626 0c0 .087-.032.161-.096.222a.325.325 0 0 1-.233.091h-.656a.325.325 0 0 1-.232-.091.294.294 0 0 1-.096-.221V1.979c0-.087.032-.16.096-.221a.325.325 0 0 1 .232-.091h.656c.092 0 .169.03.233.09.064.062.096.135.096.222v5.208zm2.625 0c0 .087-.032.161-.096.222a.325.325 0 0 1-.233.091h-.656a.325.325 0 0 1-.232-.091.294.294 0 0 1-.096-.221V3.646c0-.087.032-.16.096-.222a.325.325 0 0 1 .232-.09h.656c.092 0 .169.03.233.09.064.061.095.135.095.222v3.542zm2.624 0c0 .087-.031.161-.095.222a.325.325 0 0 1-.233.091h-.656a.325.325 0 0 1-.232-.091.294.294 0 0 1-.096-.221V1.146c0-.087.032-.16.096-.222a.325.325 0 0 1 .232-.09h.656c.092 0 .169.03.233.09.064.061.095.135.095.222v6.042z"/>
</svg>
