<svg width="13" height="13" viewBox="0 0 13 13" fill="none" xmlns="http://www.w3.org/2000/svg">
<rect x="6" y="4" width="1" height="1" fill="#FF5D00"/>
<rect x="8" y="4" width="1" height="1" fill="#FF5D00"/>
<rect x="10" y="4" width="1" height="1" fill="#FF5D00"/>
<rect x="2" y="8" width="1" height="1" fill="#FF5D00"/>
<rect x="4" y="8" width="1" height="1" fill="#FF5D00"/>
<rect x="6" y="8" width="1" height="1" fill="#FF5D00"/>
<rect x="8" y="8" width="1" height="1" fill="#FF5D00"/>
<rect x="10" y="8" width="1" height="1" fill="#FF5D00"/>
<rect x="2" y="6" width="1" height="1" fill="#FF5D00"/>
<rect x="4" y="6" width="1" height="1" fill="#FF5D00"/>
<rect x="6" y="6" width="1" height="1" fill="#FF5D00"/>
<rect x="8" y="6" width="1" height="1" fill="#FF5D00"/>
<rect x="10" y="6" width="1" height="1" fill="#FF5D00"/>
<rect x="2" y="10" width="1" height="1" fill="#FF5D00"/>
<rect x="4" y="10" width="1" height="1" fill="#FF5D00"/>
<rect x="6" y="10" width="1" height="1" fill="#FF5D00"/>
<rect x="0.5" y="2.5" width="12" height="10" rx="1.5" stroke="#FF5D00"/>
<rect x="2" width="2" height="1" rx="0.5" fill="#FF5D00"/>
<rect x="9" width="2" height="1" rx="0.5" fill="#FF5D00"/>
</svg>
