<svg width="16" height="16" viewBox="0 0 16 16" fill="none" xmlns="http://www.w3.org/2000/svg">
<path d="M1 8.03535L0.468336 7.50636C0.254621 7.72116 0.191146 8.04345 0.307452 8.32324C0.423759 8.60303 0.696997 8.78535 1 8.78535V8.03535ZM8 1L8.53166 0.471007C8.3909 0.329537 8.19957 0.25 8 0.25C7.80043 0.25 7.6091 0.329537 7.46834 0.471007L8 1ZM3.05025 8.03535H3.80025C3.80025 7.62114 3.46447 7.28535 3.05025 7.28535V8.03535ZM3.05025 15H2.30025C2.30025 15.4142 2.63604 15.75 3.05025 15.75V15ZM12.9497 15V15.75C13.364 15.75 13.6997 15.4142 13.6997 15H12.9497ZM12.9497 8.03535V7.28535C12.5355 7.28535 12.1997 7.62114 12.1997 8.03535H12.9497ZM15 8.03535V8.78535C15.303 8.78535 15.5762 8.60303 15.6925 8.32324C15.8089 8.04345 15.7454 7.72116 15.5317 7.50636L15 8.03535ZM5.05025 8.04546V7.29546C4.63604 7.29546 4.30025 7.63124 4.30025 8.04546H5.05025ZM5.05025 13H4.30025C4.30025 13.4142 4.63604 13.75 5.05025 13.75V13ZM10.9497 8.04546H11.6997C11.6997 7.63124 11.364 7.29546 10.9497 7.29546V8.04546ZM10.9497 13V13.75C11.364 13.75 11.6997 13.4142 11.6997 13H10.9497ZM1.53166 8.56435L8.53166 1.52899L7.46834 0.471007L0.468336 7.50636L1.53166 8.56435ZM3.05025 7.28535H1V8.78535H3.05025V7.28535ZM2.30025 8.03535V8.04546H3.80025V8.03535H2.30025ZM2.30025 8.04546V13H3.80025V8.04546H2.30025ZM2.30025 13V15H3.80025V13H2.30025ZM3.05025 15.75H5.05025V14.25H3.05025V15.75ZM5.05025 15.75H10.9497V14.25H5.05025V15.75ZM10.9497 15.75H12.9497V14.25H10.9497V15.75ZM13.6997 15V13H12.1997V15H13.6997ZM13.6997 13V8.04546H12.1997V13H13.6997ZM13.6997 8.04546V8.03535H12.1997V8.04546H13.6997ZM15 7.28535H12.9497V8.78535H15V7.28535ZM7.46834 1.52899L14.4683 8.56435L15.5317 7.50636L8.53166 0.471007L7.46834 1.52899ZM4.30025 8.04546V13H5.80025V8.04546H4.30025ZM10.9497 7.29546H5.05025V8.79546H10.9497V7.29546ZM11.6997 13V8.04546H10.1997V13H11.6997ZM5.05025 13.75H10.9497V12.25H5.05025V13.75Z" fill="#979AAD"/>
</svg>
