<svg width="14" height="6" viewBox="0 0 14 6" xmlns="http://www.w3.org/2000/svg">
<path d="M13.625 2.97657C13.625 3.04949 13.599 3.11198 13.5469 3.16407L10.5469 5.92969C10.4635 6.00261 10.3724 6.01824 10.2734 5.97657C10.1745 5.92969 10.125 5.85417 10.125 5.75001V4.00001H0.375C0.302083 4.00001 0.242188 3.97657 0.195312 3.92969C0.148437 3.88282 0.125 3.82292 0.125 3.75001V2.25001C0.125 2.17709 0.148437 2.11719 0.195312 2.07032C0.242188 2.02344 0.302083 2.00001 0.375 2.00001H10.125V0.250006C10.125 0.14063 10.1745 0.0651104 10.2734 0.0234435C10.3724 -0.0182234 10.4635 -0.00520267 10.5469 0.062506L13.5469 2.79688C13.599 2.84896 13.625 2.90886 13.625 2.97657Z" fill="#FF5D00"/>
</svg>
