<svg width="31" height="33" viewBox="0 0 31 33" fill="none" xmlns="http://www.w3.org/2000/svg">

<g mask="url(#mask-vb)">
<path fill-rule="evenodd" clip-rule="evenodd" d="M27.5004 3.28936C26.6882 2.53679 23.4053 0.137068 16.0936 0.104485C16.0936 0.104485 7.47193 -0.419588 3.26876 3.46372C0.929317 5.82017 0.106161 9.26712 0.0190216 13.5435C-0.067099 17.8198 -0.180313 25.8308 7.489 28.0039L7.49597 28.0059L7.49197 31.3208C7.49197 31.3208 7.4439 32.6635 8.32023 32.9364C9.38179 33.2683 10.0047 32.2478 11.0182 31.1484C11.575 30.5455 12.3421 29.6589 12.921 28.9812C18.1667 29.4235 22.2006 28.4088 22.6583 28.2591C23.7178 27.9124 29.7107 27.14 30.6851 19.129C31.6906 10.8688 30.1974 5.64581 27.5004 3.28936ZM28.4067 18.532C27.5825 25.222 22.7233 25.6446 21.8281 25.9341C21.4465 26.0573 17.9023 26.9449 13.4477 26.6514L8.61868 31.9158L8.61367 25.8494L8.57562 25.8396C2.08804 24.0251 2.3064 17.2218 2.37944 13.6508C2.45256 10.0798 3.1186 7.15395 5.09844 5.18674C8.65273 1.94371 15.9765 2.42844 15.9765 2.42844C22.1615 2.45601 25.1259 4.33066 25.8129 4.95916C28.0942 6.92746 29.2569 11.6353 28.4067 18.532Z" fill="#774483"/>
</g>
<path fill-rule="evenodd" clip-rule="evenodd" d="M22.9687 19.6729C22.9657 19.6699 21.984 18.8322 21.5047 18.471C21.0524 18.131 20.3314 17.6735 19.9283 17.4407C19.2053 17.0284 18.4663 17.2872 18.1614 17.6926L17.5277 18.5082C17.2029 18.9215 16.7025 18.8523 16.5711 18.8252C15.6345 18.5904 14.6388 18.0046 13.6199 17.0174C12.5891 16.0213 11.9654 14.9809 11.7428 13.8995L11.7267 13.8282C11.6665 13.3837 11.7408 13.1781 11.9223 12.8752L11.9564 12.847C12.3845 12.4488 13.1778 11.9642 13.284 11.5027C13.5959 10.7011 12.2422 9.02982 12.0486 8.73485C12.0486 8.73485 11.0639 7.43066 10.714 7.1818C10.3359 6.86684 9.75031 6.68724 9.1597 7.05044L9.12959 7.07248C7.43294 8.22114 6.81827 8.88127 6.98571 9.8665L7.07296 10.2627C7.93332 12.9764 9.59485 15.8697 12.0727 18.446C14.5234 20.9902 17.1747 22.514 19.7879 23.5695C20.4668 23.7952 21.1707 23.6005 21.8927 22.9836L21.9048 22.9745C22.4583 22.4569 22.8965 21.9031 23.2234 21.3102L23.2264 21.2982C23.5443 20.6711 23.437 20.0772 22.9687 19.6729Z" fill="#774483"/>
<path fill-rule="evenodd" clip-rule="evenodd" d="M18.7922 13.6981C18.6932 13.6981 18.6107 13.6237 18.6059 13.5286C18.5732 12.8997 18.3918 12.4179 18.0662 12.0958C17.7427 11.7764 17.2577 11.5979 16.6259 11.5656C16.5231 11.5602 16.4435 11.4759 16.4493 11.3772C16.455 11.2785 16.5424 11.2032 16.6461 11.2077C17.3758 11.2454 17.9433 11.4607 18.3351 11.8473C18.7249 12.2331 18.9419 12.792 18.9794 13.5106C18.9842 13.6093 18.9045 13.6928 18.8018 13.6981H18.7922Z" fill="#774483"/>
<path fill-rule="evenodd" clip-rule="evenodd" d="M20.6837 14.3208H20.6788C20.5733 14.3177 20.4896 14.225 20.4916 14.113C20.5211 12.7423 20.1338 11.5833 19.3394 10.6668C18.9442 10.2095 18.4642 9.84804 17.9112 9.59239C17.3574 9.33675 16.7118 9.17895 15.9943 9.1229C15.8888 9.1147 15.809 9.01701 15.8169 8.90603C15.8248 8.79401 15.9164 8.70946 16.0219 8.71758C17.5535 8.83677 18.7648 9.39988 19.6232 10.3928C20.4856 11.3879 20.9075 12.6435 20.8759 14.1223C20.873 14.2332 20.7872 14.3208 20.6837 14.3208Z" fill="#774483"/>
<path fill-rule="evenodd" clip-rule="evenodd" d="M22.585 14.9433C22.4804 14.9433 22.3955 14.8574 22.3945 14.7499C22.3857 13.5878 22.2108 12.5369 21.8727 11.6248C21.5365 10.7194 21.0295 9.92347 20.3651 9.25938C19.6997 8.5962 18.9435 8.0903 18.1168 7.75527C17.2883 7.41933 16.365 7.24548 15.3723 7.23869C15.2677 7.2377 15.1827 7.14982 15.1837 7.0424C15.1847 6.93497 15.2697 6.849 15.3743 6.849H15.3752C17.4593 6.86465 19.2268 7.5815 20.6309 8.981C21.3353 9.68419 21.8727 10.527 22.2284 11.487C22.582 12.4412 22.7658 13.539 22.7755 14.747C22.7765 14.8545 22.6915 14.9423 22.587 14.9433H22.585Z" fill="#774483"/>
</svg>
